<svg width="21" height="21" viewBox="0 0 21 21" fill="none" xmlns="http://www.w3.org/2000/svg">
<path d="M10.5 0C4.725 0 0 4.725 0 10.5C0 16.275 4.725 21 10.5 21C16.275 21 21 16.275 21 10.5C21 4.725 16.275 0 10.5 0ZM10.5 19.6C5.48333 19.6 1.4 15.5167 1.4 10.5C1.4 5.48333 5.48333 1.4 10.5 1.4C15.5167 1.4 19.6 5.48333 19.6 10.5C19.6 15.5167 15.5167 19.6 10.5 19.6Z" fill="#00ADEF"/>
<path d="M14.6417 9.975H11.1417V6.475C11.1417 6.06667 10.85 5.775 10.4417 5.775C10.0333 5.775 9.74167 6.06667 9.74167 6.475V9.975H6.24167C5.83333 9.975 5.54167 10.2667 5.54167 10.675C5.54167 11.0833 5.83333 11.375 6.24167 11.375H9.74167V14.875C9.74167 15.2833 10.0333 15.575 10.4417 15.575C10.85 15.575 11.1417 15.2833 11.1417 14.875V11.375H14.6417C15.05 11.375 15.3417 11.0833 15.3417 10.675C15.3417 10.2667 14.9917 9.975 14.6417 9.975Z" fill="#00ADEF"/>
</svg>
