<svg width="21" height="22" viewBox="0 0 21 22" fill="none" xmlns="http://www.w3.org/2000/svg">
<g clip-path="url(#clip0)">
<path d="M5.6 8.9V6.1H8.4V8.9H5.6ZM1.4 8.9V6.1H4.2V8.9H1.4ZM4.2 1.9V4.7H1.4V1.9H4.2ZM8.4 1.9V4.7H5.6V1.9H8.4ZM8.4 0.5H1.4C0.641667 0.5 0 1.14167 0 1.9V8.9C0 9.65833 0.641667 10.3 1.4 10.3H8.4C9.15833 10.3 9.8 9.65833 9.8 8.9V1.9C9.8 1.14167 9.15833 0.5 8.4 0.5Z" fill="#00ADEF"/>
<path d="M19.6 8.9H12.6V1.9H19.6V8.9ZM19.6 0.5H12.6C11.8417 0.5 11.2 1.14167 11.2 1.9V8.9C11.2 9.65833 11.8417 10.3 12.6 10.3H19.6C20.3583 10.3 21 9.65833 21 8.9V1.9C21 1.14167 20.3583 0.5 19.6 0.5Z" fill="#00ADEF"/>
<path d="M8.4 20.1H1.4V13.1H8.4V20.1ZM8.4 11.7H1.4C0.641667 11.7 0 12.3417 0 13.1V20.1C0 20.8583 0.641667 21.5 1.4 21.5H8.4C9.15833 21.5 9.8 20.8583 9.8 20.1V13.1C9.8 12.3417 9.15833 11.7 8.4 11.7Z" fill="#00ADEF"/>
<path d="M19.6 20.1H12.6V13.1H19.6V20.1ZM19.6 11.7H12.6C11.8417 11.7 11.2 12.3417 11.2 13.1V20.1C11.2 20.8583 11.8417 21.5 12.6 21.5H19.6C20.3583 21.5 21 20.8583 21 20.1V13.1C21 12.3417 20.3583 11.7 19.6 11.7Z" fill="#00ADEF"/>
</g>
<defs>
<clipPath id="clip0">
<rect width="21" height="21" fill="white" transform="translate(0 0.5)"/>
</clipPath>
</defs>
</svg>
