<svg width="15" height="5" viewBox="0 0 15 5" fill="none" xmlns="http://www.w3.org/2000/svg">
<path d="M0.703613 2.48242C0.703613 1.98828 0.821777 1.6123 1.05811 1.35449C1.29443 1.09668 1.63102 0.967773 2.06787 0.967773C2.50114 0.967773 2.83594 1.09847 3.07227 1.35986C3.31217 1.61768 3.43213 1.99186 3.43213 2.48242C3.43213 2.96582 3.31217 3.34001 3.07227 3.60498C2.83236 3.86995 2.49756 4.00244 2.06787 4.00244C1.63818 4.00244 1.30339 3.87354 1.06348 3.61572C0.823568 3.35433 0.703613 2.97656 0.703613 2.48242ZM6.33936 2.48242C6.33936 1.98828 6.45752 1.6123 6.69385 1.35449C6.93018 1.09668 7.26676 0.967773 7.70361 0.967773C8.13688 0.967773 8.47168 1.09847 8.70801 1.35986C8.94792 1.61768 9.06787 1.99186 9.06787 2.48242C9.06787 2.96582 8.94792 3.34001 8.70801 3.60498C8.4681 3.86995 8.1333 4.00244 7.70361 4.00244C7.27393 4.00244 6.93913 3.87354 6.69922 3.61572C6.45931 3.35433 6.33936 2.97656 6.33936 2.48242ZM11.9751 2.48242C11.9751 1.98828 12.0933 1.6123 12.3296 1.35449C12.5659 1.09668 12.9025 0.967773 13.3394 0.967773C13.7726 0.967773 14.1074 1.09847 14.3438 1.35986C14.5837 1.61768 14.7036 1.99186 14.7036 2.48242C14.7036 2.96582 14.5837 3.34001 14.3438 3.60498C14.1038 3.86995 13.769 4.00244 13.3394 4.00244C12.9097 4.00244 12.5749 3.87354 12.335 3.61572C12.0951 3.35433 11.9751 2.97656 11.9751 2.48242Z" fill="#272727"/>
</svg>
