<svg width="240" height="262" viewBox="0 0 240 262" fill="none" xmlns="http://www.w3.org/2000/svg">
<g clip-path="url(#clip0)">
<rect width="240" height="262" fill="white"/>
<path d="M255.922 202.984H-15.9224V203.12H255.922V202.984Z" fill="#EBEBEB"/>
<path d="M112.932 178.736H7.95108C7.12867 178.734 6.34043 178.407 5.75941 177.825C5.17838 177.243 4.85205 176.454 4.85205 175.631V28.0579C4.85921 27.2402 5.1887 26.4583 5.76895 25.8821C6.3492 25.306 7.13336 24.982 7.95108 24.9806H112.932C113.755 24.9806 114.545 25.3077 115.127 25.8899C115.709 26.4721 116.037 27.2617 116.037 28.0851V175.631C116.037 176.455 115.709 177.244 115.127 177.827C114.545 178.409 113.755 178.736 112.932 178.736ZM7.95108 25.0893C7.16472 25.0908 6.41105 25.4042 5.85552 25.9607C5.29998 26.5173 4.98797 27.2715 4.98797 28.0579V175.631C4.98797 176.418 5.29998 177.172 5.85552 177.729C6.41105 178.285 7.16472 178.599 7.95108 178.6H112.932C113.719 178.599 114.473 178.285 115.03 177.729C115.586 177.173 115.899 176.418 115.901 175.631V28.0579C115.899 27.271 115.586 26.5168 115.03 25.9604C114.473 25.404 113.719 25.0908 112.932 25.0893H7.95108Z" fill="#EBEBEB"/>
<path d="M230.537 178.736H125.551C124.728 178.734 123.939 178.407 123.357 177.825C122.775 177.243 122.448 176.454 122.446 175.631V28.0579C122.455 27.2397 122.786 26.4578 123.367 25.8818C123.948 25.3058 124.733 24.982 125.551 24.9806H230.537C231.354 24.9834 232.137 25.308 232.716 25.8841C233.295 26.4601 233.624 27.2411 233.631 28.0579V175.631C233.631 176.453 233.305 177.241 232.725 177.823C232.145 178.405 231.359 178.733 230.537 178.736ZM125.551 25.0893C124.764 25.0908 124.01 25.404 123.453 25.9604C122.897 26.5168 122.584 27.271 122.582 28.0579V175.631C122.584 176.418 122.897 177.173 123.453 177.729C124.01 178.285 124.764 178.599 125.551 178.6H230.537C231.324 178.599 232.078 178.285 232.635 177.729C233.191 177.173 233.504 176.418 233.506 175.631V28.0579C233.504 27.271 233.191 26.5168 232.635 25.9604C232.078 25.404 231.324 25.0908 230.537 25.0893H125.551Z" fill="#EBEBEB"/>
<path d="M228.683 208.16H211.519V208.296H228.683V208.16Z" fill="#EBEBEB"/>
<path d="M166.398 206.687H148.234V206.823H166.398V206.687Z" fill="#EBEBEB"/>
<path d="M233.642 213.211H199.699V213.347H233.642V213.211Z" fill="#EBEBEB"/>
<path d="M23.0548 212.298H12.5996V212.434H23.0548V212.298Z" fill="#EBEBEB"/>
<path d="M44.3673 212.298H27.8989V212.434H44.3673V212.298Z" fill="#EBEBEB"/>
<path d="M116.814 210.003H87.1504V210.139H116.814V210.003Z" fill="#EBEBEB"/>
<path d="M132.102 59.3037L101.123 90.2886V193.475H209.855V59.3037H132.102Z" fill="white"/>
<path d="M209.856 193.769H101.118C101.04 193.769 100.965 193.738 100.91 193.683C100.855 193.628 100.824 193.553 100.824 193.475V90.2885C100.824 90.25 100.832 90.2119 100.847 90.1764C100.862 90.141 100.884 90.1088 100.911 90.0819L131.902 59.0917C131.957 59.0379 132.031 59.0069 132.108 59.0047H209.856C209.894 59.0047 209.932 59.0123 209.968 59.027C210.004 59.0418 210.036 59.0634 210.063 59.0907C210.091 59.1179 210.112 59.1503 210.127 59.1859C210.142 59.2215 210.149 59.2597 210.149 59.2983V193.475C210.149 193.514 210.142 193.552 210.127 193.588C210.112 193.623 210.091 193.656 210.063 193.683C210.036 193.71 210.004 193.732 209.968 193.747C209.932 193.761 209.894 193.769 209.856 193.769ZM101.417 193.187H209.562V59.5973H132.228L101.417 90.4082V193.187Z" fill="#E0E0E0"/>
<path d="M101.123 90.2885L133.63 94.4804L132.103 59.3037L101.123 90.2885Z" fill="#E6E6E6"/>
<path d="M101.123 90.2885H132.102V59.3037L101.123 90.2885Z" fill="white"/>
<path d="M132.103 90.5767H101.112C101.054 90.5769 100.998 90.5601 100.949 90.5281C100.901 90.4962 100.863 90.4507 100.84 90.3973C100.818 90.3443 100.812 90.2857 100.824 90.2294C100.835 90.173 100.864 90.1216 100.906 90.0819L131.896 59.0917C131.938 59.0514 131.99 59.0238 132.047 59.0123C132.104 59.0007 132.163 59.0056 132.217 59.0264C132.27 59.0495 132.315 59.0875 132.347 59.1358C132.379 59.184 132.396 59.2405 132.396 59.2983V90.2885C132.395 90.3654 132.363 90.4387 132.308 90.4926C132.253 90.5465 132.179 90.5767 132.103 90.5767ZM101.83 89.9949H131.814V60.0105L101.83 89.9949Z" fill="#E0E0E0"/>
<path d="M161.777 134.909L180.262 116.424C180.675 116.011 181.003 115.52 181.227 114.981C181.45 114.441 181.565 113.863 181.565 113.279C181.565 112.694 181.45 112.116 181.227 111.576C181.003 111.037 180.675 110.546 180.262 110.133C179.849 109.72 179.359 109.393 178.819 109.169C178.28 108.946 177.701 108.83 177.117 108.83C176.533 108.83 175.955 108.946 175.415 109.169C174.875 109.393 174.385 109.72 173.972 110.133L155.486 128.619L137.001 110.133C136.167 109.299 135.035 108.83 133.856 108.83C132.676 108.83 131.545 109.299 130.711 110.133C129.876 110.967 129.408 112.099 129.408 113.279C129.408 114.458 129.876 115.59 130.711 116.424L149.196 134.909L130.711 153.395C129.876 154.229 129.408 155.36 129.408 156.54C129.408 157.72 129.876 158.851 130.711 159.685C131.545 160.519 132.676 160.988 133.856 160.988C135.035 160.988 136.167 160.519 137.001 159.685L155.486 141.2L173.972 159.685C174.806 160.519 175.937 160.988 177.117 160.988C178.297 160.988 179.428 160.519 180.262 159.685C181.097 158.851 181.565 157.72 181.565 156.54C181.565 155.36 181.097 154.229 180.262 153.395L161.777 134.909Z" fill="#F0F0F0"/>
<path d="M105.32 119.583C104.277 120.624 102.864 121.21 101.389 121.21C99.9153 121.21 98.5015 120.624 97.4586 119.583L79.6201 101.739L87.4819 93.8769L105.32 111.743C106.356 112.785 106.937 114.194 106.937 115.663C106.937 117.131 106.356 118.541 105.32 119.583Z" fill="#F0F0F0"/>
<path d="M79.6177 101.773L87.4796 93.9113L88.2062 94.6379C88.9597 95.3914 89.383 96.4134 89.383 97.479C89.383 98.5446 88.9597 99.5666 88.2062 100.32L86.0264 102.5C85.2729 103.253 84.2509 103.677 83.1853 103.677C82.1197 103.677 81.0978 103.253 80.3443 102.5L79.6177 101.773Z" fill="#E0E0E0"/>
<path d="M30.1338 44.3957C24.7391 49.7959 21.0665 56.6741 19.5802 64.1611C18.0939 71.6481 18.8606 79.4077 21.7835 86.459C24.7063 93.5103 29.654 99.5368 36.0012 103.777C42.3485 108.017 49.8102 110.28 57.4433 110.28C65.0763 110.28 72.5381 108.017 78.8853 103.777C85.2325 99.5368 90.1802 93.5103 93.1031 86.459C96.0259 79.4077 96.7926 71.6481 95.3063 64.1611C93.82 56.6741 90.1474 49.7959 84.7528 44.3957C81.1677 40.8071 76.9106 37.9602 72.2246 36.0178C67.5387 34.0754 62.5158 33.0757 57.4433 33.0757C52.3707 33.0757 47.3479 34.0754 42.6619 36.0178C37.976 37.9602 33.7188 40.8071 30.1338 44.3957ZM82.5237 96.7856C77.5638 101.745 71.2445 105.123 64.3651 106.491C57.4856 107.86 50.3548 107.157 43.8745 104.473C37.3942 101.789 31.8554 97.2433 27.9585 91.4111C24.0616 85.579 21.9816 78.7222 21.9816 71.708C21.9816 64.6937 24.0616 57.837 27.9585 52.0048C31.8554 46.1727 37.3942 41.6271 43.8745 38.9428C50.3548 36.2585 57.4856 35.5562 64.3651 36.9245C71.2445 38.2929 77.5638 41.6705 82.5237 46.6303C85.8169 49.9235 88.4293 53.8332 90.2116 58.136C91.9939 62.4388 92.9113 67.0506 92.9113 71.708C92.9113 76.3653 91.9939 80.9771 90.2116 85.2799C88.4293 89.5828 85.8169 93.4924 82.5237 96.7856Z" fill="#E0E0E0"/>
<path d="M77.7335 93.2952C77.4781 93.2946 77.2285 93.2183 77.0163 93.0761C76.8041 92.9339 76.6387 92.732 76.541 92.496C76.4434 92.2599 76.4178 92.0002 76.4674 91.7496C76.5171 91.499 76.6398 91.2688 76.8202 91.0878C81.9506 85.943 84.8317 78.9737 84.8317 71.708C84.8317 64.4423 81.9506 57.473 76.8202 52.3282C76.6883 52.211 76.5819 52.0682 76.5073 51.9084C76.4327 51.7486 76.3915 51.5753 76.3863 51.399C76.3811 51.2228 76.412 51.0473 76.4771 50.8834C76.5422 50.7195 76.6401 50.5707 76.7647 50.446C76.8894 50.3213 77.0383 50.2234 77.2022 50.1583C77.3661 50.0932 77.5415 50.0624 77.7178 50.0675C77.8941 50.0727 78.0674 50.1139 78.2272 50.1885C78.387 50.2631 78.5298 50.3696 78.6469 50.5014C84.2618 56.1296 87.4151 63.7552 87.4151 71.7053C87.4151 79.6554 84.2618 87.2809 78.6469 92.9092C78.5276 93.0304 78.3854 93.1269 78.2287 93.1931C78.072 93.2594 77.9037 93.2941 77.7335 93.2952Z" fill="#E0E0E0"/>
<path d="M29.5192 79.6377C29.2283 79.638 28.9458 79.5398 28.7178 79.3591C28.4898 79.1785 28.3296 78.926 28.2633 78.6427C27.3229 74.6602 27.2043 70.5277 27.9147 66.4978C28.6251 62.4679 30.1497 58.6251 32.3953 55.2043C32.5842 54.9159 32.8799 54.7144 33.2174 54.644C33.5549 54.5736 33.9065 54.6402 34.1949 54.8291C34.4833 55.018 34.6849 55.3138 34.7552 55.6512C34.8256 55.9887 34.759 56.3404 34.5701 56.6287C32.5141 59.7537 31.1163 63.2647 30.4619 66.9476C29.8076 70.6306 29.9105 74.4082 30.7642 78.0501C30.8046 78.2151 30.8118 78.3864 30.7855 78.5542C30.7591 78.722 30.6997 78.8828 30.6107 79.0275C30.5217 79.1721 30.4048 79.2977 30.2669 79.3968C30.129 79.4959 29.9728 79.5667 29.8074 79.605C29.7126 79.6256 29.6161 79.6365 29.5192 79.6377Z" fill="#E0E0E0"/>
<path d="M37.1527 93.2951C36.8098 93.2943 36.4813 93.1574 36.2393 92.9146C33.9103 90.5945 31.9813 87.9049 30.5305 84.955C30.4556 84.8029 30.4113 84.6375 30.4002 84.4683C30.3891 84.2991 30.4115 84.1294 30.466 83.9689C30.5206 83.8083 30.6062 83.6601 30.718 83.5326C30.8298 83.4052 30.9656 83.301 31.1177 83.226C31.2698 83.1511 31.4351 83.1068 31.6043 83.0957C31.7735 83.0846 31.9432 83.107 32.1038 83.1615C32.2643 83.2161 32.4126 83.3017 32.54 83.4135C32.6675 83.5253 32.7717 83.6611 32.8466 83.8132C34.1768 86.5073 35.94 88.9648 38.0661 91.0878C38.3078 91.3303 38.4435 91.6588 38.4435 92.0012C38.4435 92.3436 38.3078 92.672 38.0661 92.9146C37.8231 93.1559 37.4952 93.2925 37.1527 93.2951Z" fill="#E0E0E0"/>
<path d="M98.8139 169.279L103.896 174.361L92.0938 186.163C91.4902 186.767 90.6715 187.106 89.8179 187.106C88.9642 187.106 88.1456 186.767 87.542 186.163L87.0076 185.629C86.404 185.025 86.0649 184.207 86.0649 183.353C86.0649 182.499 86.404 181.681 87.0076 181.077L98.8101 169.275L98.8139 169.279Z" fill="#F0F0F0"/>
<path d="M98.8217 169.289L103.896 174.364L103.654 174.606C103.107 175.154 102.364 175.461 101.59 175.461C100.815 175.461 100.073 175.154 99.5252 174.606L98.5718 173.653C98.0242 173.105 97.7166 172.363 97.7166 171.588C97.7166 170.814 98.0242 170.071 98.5718 169.524L98.814 169.282L98.8217 169.289Z" fill="#E0E0E0"/>
<path d="M138.676 141.711L126.769 153.612C125.448 155.028 124.728 156.903 124.762 158.84C124.796 160.776 125.581 162.624 126.951 163.993C128.322 165.362 130.171 166.146 132.108 166.178C134.044 166.21 135.918 165.488 137.333 164.165L142.15 159.353C143.164 153.246 141.93 146.978 138.676 141.711Z" fill="#F0F0F0"/>
<path d="M143.161 153.193C142.82 148.265 141.025 143.548 138.003 139.639C134.981 135.731 130.868 132.807 126.184 131.236C121.5 129.665 116.455 129.519 111.688 130.816C106.921 132.113 102.645 134.794 99.4018 138.521C96.1586 142.248 94.0936 146.853 93.4678 151.754C92.842 156.654 93.6836 161.631 95.8862 166.053C98.0888 170.475 101.553 174.145 105.842 176.598C110.13 179.051 115.05 180.177 119.978 179.834C126.585 179.374 132.738 176.309 137.086 171.314C141.433 166.318 143.618 159.8 143.161 153.193ZM95.3655 156.521C95.0506 151.996 96.0845 147.479 98.3366 143.542C100.589 139.605 103.958 136.424 108.018 134.401C112.078 132.379 116.646 131.606 121.146 132.18C125.645 132.754 129.873 134.65 133.295 137.627C136.717 140.604 139.18 144.529 140.371 148.906C141.562 153.283 141.429 157.914 139.987 162.215C138.546 166.516 135.862 170.293 132.274 173.068C128.687 175.843 124.356 177.492 119.832 177.806C113.765 178.227 107.779 176.222 103.191 172.23C98.6025 168.238 95.7878 162.588 95.3655 156.521Z" fill="#E0E0E0"/>
<path d="M105.527 169.553C103.603 167.885 102.027 165.854 100.889 163.575C99.752 161.297 99.0757 158.816 98.8992 156.276C98.8867 156.164 98.897 156.05 98.9295 155.942C98.9621 155.834 99.0162 155.733 99.0886 155.647C99.161 155.56 99.2502 155.489 99.3509 155.437C99.4515 155.386 99.5615 155.356 99.6742 155.348C99.7869 155.34 99.9 155.355 100.007 155.393C100.113 155.43 100.211 155.488 100.295 155.564C100.379 155.64 100.446 155.732 100.493 155.835C100.54 155.938 100.565 156.049 100.568 156.162C100.902 160.844 103.076 165.203 106.616 168.286C110.156 171.368 114.773 172.922 119.456 172.609C119.677 172.593 119.894 172.666 120.061 172.812C120.228 172.957 120.33 173.163 120.345 173.383C120.36 173.604 120.287 173.821 120.142 173.988C119.996 174.155 119.791 174.257 119.57 174.272C117.034 174.448 114.488 174.122 112.078 173.312C109.668 172.503 107.442 171.225 105.527 169.553Z" fill="#E0E0E0"/>
<path d="M135.571 150.573C135.447 150.465 135.358 150.323 135.316 150.165C134.661 147.838 133.539 145.669 132.018 143.79C130.497 141.911 128.61 140.362 126.47 139.237C126.283 139.129 126.145 138.953 126.084 138.746C126.023 138.539 126.045 138.316 126.145 138.125C126.244 137.933 126.414 137.788 126.619 137.718C126.823 137.649 127.046 137.661 127.242 137.753C129.584 138.984 131.65 140.68 133.315 142.736C134.98 144.793 136.208 147.167 136.925 149.714C136.955 149.819 136.963 149.93 136.95 150.039C136.937 150.148 136.902 150.253 136.848 150.349C136.794 150.444 136.722 150.528 136.635 150.596C136.548 150.663 136.449 150.712 136.343 150.741C136.211 150.778 136.071 150.782 135.937 150.753C135.802 150.723 135.677 150.661 135.571 150.573Z" fill="#E0E0E0"/>
<path d="M116.406 137.051C116.24 136.904 116.139 136.697 116.124 136.475C116.109 136.255 116.181 136.037 116.326 135.87C116.471 135.703 116.675 135.6 116.896 135.583C119.016 135.436 121.146 135.636 123.202 136.176C123.309 136.204 123.41 136.253 123.498 136.32C123.586 136.387 123.66 136.471 123.716 136.567C123.772 136.662 123.808 136.768 123.823 136.878C123.838 136.988 123.831 137.099 123.803 137.206C123.775 137.313 123.726 137.414 123.659 137.502C123.592 137.59 123.508 137.664 123.412 137.72C123.317 137.776 123.211 137.812 123.101 137.827C122.992 137.842 122.88 137.835 122.773 137.807C120.897 137.311 118.951 137.127 117.015 137.263C116.792 137.274 116.574 137.198 116.406 137.051Z" fill="#E0E0E0"/>
<path d="M120 227.537C178.219 227.537 225.416 224.782 225.416 221.383C225.416 217.984 178.219 215.228 120 215.228C61.7803 215.228 14.584 217.984 14.584 221.383C14.584 224.782 61.7803 227.537 120 227.537Z" fill="#F5F5F5"/>
<path d="M59.0093 74.3911C54.6271 78.8004 62.0757 85.6454 57.1553 88.788C61.1731 90.805 75.2547 93.3658 78.9029 85.4334C76.2442 83.3674 78.0928 78.2893 75.6407 73.4124C71.9708 66.1814 54.6271 69.3837 59.0093 74.3911Z" fill="#263238"/>
<path d="M59.4061 74.2769C58.0414 74.0486 53.4255 76.3429 56.8616 82.5029C59.629 87.4831 57.3238 87.8365 57.3238 87.8365C57.3238 87.8365 60.0422 87.9126 58.4112 84.2101C56.6822 80.2575 55.8721 76.1581 59.4061 74.2769Z" fill="#263238"/>
<path d="M91.7283 113.39C91.5602 113.082 91.278 112.853 90.9424 112.751C90.6069 112.649 90.2448 112.684 89.9341 112.846L89.6134 113.015C89.5101 113.069 89.3143 113.2 89.1567 113.292C88.999 113.384 88.8141 113.488 88.6402 113.575C88.2973 113.747 87.9431 113.896 87.58 114.021C86.908 114.264 86.2012 114.398 85.4868 114.417C84.8304 114.425 84.1776 114.32 83.5567 114.108C83.1622 113.961 82.7819 113.779 82.4204 113.564C81.9528 112.531 81.507 111.487 81.1264 110.41C80.6642 109.155 80.2565 107.871 79.8976 106.572C79.5388 105.273 79.2235 103.957 78.9625 102.636C78.8266 101.978 78.707 101.315 78.5982 100.657L78.4514 99.6726C78.4025 99.3573 78.359 98.9984 78.3318 98.7483V98.6396C78.2597 97.9186 77.9042 97.2558 77.3434 96.797C76.7826 96.3382 76.0625 96.1209 75.3415 96.193C74.6205 96.2651 73.9577 96.6207 73.4989 97.1815C73.0401 97.7422 72.8228 98.4623 72.8949 99.1833C72.933 99.6454 72.9656 99.9988 73.0145 100.385C73.0635 100.771 73.1178 101.141 73.1722 101.516C73.2918 102.266 73.4277 103.005 73.58 103.745C73.8822 105.214 74.2633 106.666 74.7217 108.094C74.9337 108.812 75.1947 109.519 75.4394 110.231C75.684 110.943 75.9831 111.639 76.293 112.33C76.8863 113.725 77.5598 115.085 78.3101 116.402L78.3753 116.522C78.5704 116.875 78.8629 117.166 79.218 117.359C80.2457 117.919 81.356 118.312 82.5073 118.522C83.6897 118.731 84.9016 118.705 86.0739 118.446C87.7287 118.062 89.2487 117.238 90.4724 116.059C90.6736 115.875 90.8638 115.684 91.0161 115.483C91.1683 115.282 91.3532 115.092 91.5598 114.809C91.7192 114.613 91.8196 114.375 91.8494 114.124C91.8793 113.873 91.8373 113.618 91.7283 113.39Z" fill="#FF8B7B"/>
<path d="M95.3439 108.301H95.1863C94.6658 108.29 94.1499 108.399 93.6784 108.62C93.207 108.84 92.7927 109.167 92.4678 109.573L89.8418 112.868V115.119C91.9513 115.956 94.6263 113.7 94.6263 113.7L95.98 113.357C96.4357 113.244 96.833 112.965 97.0951 112.575C97.3572 112.186 97.4655 111.713 97.3991 111.248L97.2033 109.927C97.1395 109.478 96.9167 109.067 96.5755 108.769C96.2342 108.47 95.7972 108.304 95.3439 108.301Z" fill="#FF8B7B"/>
<path d="M78.261 95.595C80.0171 97.4 80.1259 102.788 80.1259 102.788L73.1014 108.442C73.1014 108.442 70.2144 100.45 71.8128 97.6284C73.1666 95.2361 76.021 93.2952 78.261 95.595Z" fill="#E72176"/>
<g opacity="0.2">
<path opacity="0.2" d="M78.261 95.595C80.0171 97.4 80.1259 102.788 80.1259 102.788L73.1014 108.442C73.1014 108.442 70.2144 100.45 71.8128 97.6284C73.1666 95.2361 76.021 93.2952 78.261 95.595Z" fill="white"/>
</g>
<path d="M66.6372 216.724L70.5191 217.148L71.052 206.6L67.17 206.17L66.6372 216.724Z" fill="#FF8B7B"/>
<path d="M71.1551 214.614H66.5935C66.5016 214.611 66.4121 214.644 66.3441 214.706C66.2761 214.768 66.2349 214.854 66.2293 214.946L65.9248 219.257C65.9247 219.483 66.0128 219.699 66.1703 219.861C66.3277 220.022 66.542 220.116 66.7675 220.122C68.6922 220.122 68.7139 220.122 71.117 220.122H77.5924C79.5823 220.122 79.5877 218.104 78.7287 217.92C74.863 217.104 73.357 215.973 71.9924 214.897C71.7526 214.712 71.4579 214.612 71.1551 214.614Z" fill="#263238"/>
<path opacity="0.2" d="M71.0516 206.605L70.7743 212.042H66.8706L67.1696 206.176L71.0516 206.605Z" fill="black"/>
<path d="M73.1451 122.448C73.1451 122.448 76.5051 150.573 76.5051 163.078C73.8573 180.476 71.6119 211.009 71.6119 211.009L66.2402 210.868C66.2402 210.868 63.799 177.616 66.0608 163.257C63.1629 150.393 59.5854 120.708 59.5854 120.708L73.1451 122.448Z" fill="#263238"/>
<path opacity="0.2" d="M62.7876 130.277C62.1474 130.559 61.5263 130.882 60.9282 131.245C61.6676 136.796 62.6408 143.782 63.6738 150.23C65.4354 144.924 64.484 133.256 62.7876 130.277Z" fill="black"/>
<path d="M24.5991 206.932L27.8014 209.166L33.3253 200.163L30.123 197.928L24.5991 206.932Z" fill="#FF8B7B"/>
<path d="M28.6114 207.986L25.893 204.327C25.8412 204.252 25.7621 204.201 25.6726 204.183C25.5832 204.166 25.4905 204.185 25.4145 204.235L21.7718 206.573C21.5901 206.707 21.4682 206.906 21.4326 207.129C21.397 207.352 21.4505 207.58 21.5815 207.763C22.7178 209.313 22.7396 209.324 24.1695 211.249C25.0557 212.428 26.8227 214.804 28.0405 216.441C29.2584 218.077 30.8514 216.838 30.4817 216.033C28.8506 212.45 28.8506 210.596 28.8833 208.835C28.8888 208.53 28.7932 208.231 28.6114 207.986Z" fill="#263238"/>
<path opacity="0.2" d="M33.3196 200.163L30.4761 204.806L27.0454 202.936L30.1227 197.928L33.3196 200.163Z" fill="black"/>
<path d="M44.2426 210.705C41.4644 210.705 35.6795 210.705 35.5816 206.616C35.5055 203.409 39.4745 202.076 42.8997 201.913C43.2792 201.895 43.6586 201.952 44.0162 202.08C44.3738 202.208 44.7026 202.406 44.9838 202.662C45.265 202.917 45.4932 203.225 45.6552 203.569C45.8172 203.913 45.9099 204.285 45.928 204.664V204.882C49.81 204.697 52.3218 203.849 53.2407 202.403C55.3121 199.141 51.3432 190.719 47.5102 182.58C42.9976 173.005 37.8869 162.159 37.789 151.769C37.7854 151.389 37.8567 151.012 37.9988 150.66C38.1408 150.308 38.3509 149.987 38.6169 149.716C38.883 149.445 39.1999 149.229 39.5494 149.08C39.899 148.931 40.2744 148.853 40.6543 148.849C41.4163 148.851 42.1471 149.152 42.6884 149.688C43.2298 150.225 43.5381 150.953 43.5467 151.715C43.6337 160.838 48.4399 171.075 52.7133 180.111C57.6065 190.539 61.8745 199.548 58.0958 205.502C55.9047 209.003 51.3649 210.705 44.2426 210.705Z" fill="#E72176"/>
<path d="M68.8441 121.893C68.8441 121.893 59.5688 154.036 55.0398 165.693C46.2647 180.949 31.7047 204.295 31.7047 204.295L27.0562 201.576C27.0562 201.576 37.9299 174.609 45.2426 162.05C47.2053 149.002 54.6266 120.045 54.6266 120.045L68.8441 121.893Z" fill="#263238"/>
<path d="M29.4488 210.612C29.6333 210.918 29.9175 211.15 30.2535 211.27C30.3518 211.294 30.4548 211.29 30.5509 211.258C30.6469 211.226 30.7322 211.168 30.7972 211.091C30.8424 211.049 30.8769 210.997 30.8977 210.94C30.9185 210.882 30.9251 210.82 30.9168 210.759C30.8515 210.107 29.1661 209.259 28.829 209.096C28.8094 209.088 28.7875 209.087 28.7674 209.094C28.7474 209.101 28.7306 209.115 28.7203 209.134C28.7072 209.154 28.7002 209.177 28.7002 209.202C28.7002 209.226 28.7072 209.249 28.7203 209.269C28.9199 209.739 29.1639 210.189 29.4488 210.612ZM30.6069 210.612C30.6547 210.672 30.6866 210.743 30.6993 210.819C30.7019 210.84 30.6993 210.862 30.6918 210.882C30.6842 210.901 30.6718 210.919 30.6558 210.933C30.612 210.983 30.5556 211.021 30.4926 211.042C30.4295 211.063 30.362 211.066 30.297 211.053C29.9381 210.982 29.4651 210.4 29.0084 209.482C29.6006 209.757 30.1412 210.133 30.6069 210.591V210.612Z" fill="#E72176"/>
<path d="M28.693 209.291L28.7256 209.318C29.2693 209.617 30.6829 209.862 30.9928 209.411C31.0448 209.328 31.0701 209.232 31.0653 209.135C31.0604 209.037 31.0256 208.944 30.9656 208.867C30.4219 207.905 28.7909 209.036 28.7202 209.085C28.704 209.098 28.6911 209.114 28.6826 209.133C28.6741 209.152 28.6702 209.173 28.6713 209.193C28.6691 209.227 28.6766 209.261 28.693 209.291ZM30.759 208.976C30.7749 208.995 30.7894 209.015 30.8025 209.036C30.8623 209.139 30.8732 209.215 30.8406 209.259C30.6612 209.52 29.6173 209.427 29.0084 209.188C29.4161 208.943 30.3676 208.449 30.759 208.976Z" fill="#E72176"/>
<path d="M73.7863 215.511C74.1427 215.544 74.4994 215.453 74.7976 215.256C74.8732 215.189 74.9289 215.104 74.9587 215.008C74.9884 214.912 74.991 214.809 74.9661 214.712C74.9583 214.65 74.9367 214.592 74.9028 214.54C74.8688 214.488 74.8236 214.445 74.7704 214.413C74.2267 214.081 72.5249 214.924 72.1933 215.098C72.1746 215.108 72.16 215.125 72.1521 215.144C72.1442 215.164 72.1434 215.186 72.1498 215.207C72.1581 215.229 72.1718 215.25 72.1898 215.266C72.2079 215.282 72.2296 215.293 72.2531 215.299C72.7556 215.422 73.2693 215.493 73.7863 215.511ZM74.4605 214.571C74.5379 214.566 74.6152 214.583 74.6834 214.619C74.7106 214.619 74.7378 214.657 74.7486 214.723C74.7629 214.788 74.7592 214.855 74.7382 214.919C74.7171 214.982 74.6794 215.038 74.629 215.082C74.3626 215.326 73.6123 215.359 72.6011 215.179C73.1725 214.873 73.7922 214.667 74.4333 214.571H74.4605Z" fill="#E72176"/>
<path d="M72.2531 215.326H72.2912C72.8349 215.076 73.8951 214.081 73.7211 213.565C73.6848 213.479 73.6243 213.406 73.5469 213.355C73.4696 213.304 73.3789 213.277 73.2861 213.276C72.1987 213.151 72.1226 215.12 72.1172 215.201C72.1173 215.223 72.1229 215.244 72.1333 215.263C72.1438 215.282 72.1588 215.298 72.177 215.31C72.2001 215.323 72.2267 215.329 72.2531 215.326ZM73.2318 213.478H73.3079C73.422 213.478 73.4927 213.527 73.509 213.581C73.6123 213.88 72.9164 214.668 72.3564 215.011C72.4053 214.538 72.5793 213.478 73.2426 213.478H73.2318Z" fill="#E72176"/>
<path d="M54.627 120.072L73.145 122.442C77.3206 108.383 78.6961 101.592 79.0658 98.3243C79.1636 97.503 78.9716 96.6733 78.523 95.9785C78.0743 95.2836 77.3971 94.7672 76.6083 94.5184C75.5209 94.1705 74.1182 93.7573 72.7264 93.4311C72.2534 93.306 71.7695 93.1918 71.2965 93.0831C68.5242 92.5206 65.7152 92.1573 62.891 91.9957C62.4724 91.9577 62.0592 91.9359 61.6406 91.9142C60.8196 91.8707 60.0095 91.8598 59.2701 91.8598C58.7151 91.8591 58.1661 91.9741 57.658 92.1973C57.1499 92.4205 56.6938 92.7471 56.3189 93.1563C55.944 93.5655 55.6584 94.0483 55.4804 94.5739C55.3023 95.0996 55.2357 95.6565 55.2848 96.2093C55.4316 97.8404 55.5458 99.3573 55.6328 100.749C55.8394 104.011 55.9046 106.621 55.8557 108.904C55.7446 112.654 55.3337 116.388 54.627 120.072Z" fill="#E72176"/>
<g opacity="0.3">
<path opacity="0.3" d="M54.627 120.072L73.145 122.442C77.3206 108.383 78.6961 101.592 79.0658 98.3243C79.1636 97.503 78.9716 96.6733 78.523 95.9785C78.0743 95.2836 77.3971 94.7672 76.6083 94.5184C75.5209 94.1705 74.1182 93.7573 72.7264 93.4311C72.2534 93.306 71.7695 93.1918 71.2965 93.0831C68.5242 92.5206 65.7152 92.1573 62.891 91.9957C62.4724 91.9577 62.0592 91.9359 61.6406 91.9142C60.8196 91.8707 60.0095 91.8598 59.2701 91.8598C58.7151 91.8591 58.1661 91.9741 57.658 92.1973C57.1499 92.4205 56.6938 92.7471 56.3189 93.1563C55.944 93.5655 55.6584 94.0483 55.4804 94.5739C55.3023 95.0996 55.2357 95.6565 55.2848 96.2093C55.4316 97.8404 55.5458 99.3573 55.6328 100.749C55.8394 104.011 55.9046 106.621 55.8557 108.904C55.7446 112.654 55.3337 116.388 54.627 120.072Z" fill="white"/>
</g>
<path opacity="0.3" d="M55.845 108.883C58.2916 105.718 59.1778 102.097 58.384 100.102L55.6221 100.722C55.845 103.973 55.9048 106.594 55.845 108.883Z" fill="#E72176"/>
<path d="M72.7264 93.3985C72.248 93.2734 71.7695 93.1592 71.2965 93.0505C68.522 92.4906 65.7113 92.1273 62.8856 91.9631C62.467 91.9305 62.0538 91.9087 61.6406 91.887L60.9175 91.8544L61.4612 92.8058C61.5373 92.9363 63.3858 95.9592 67.9854 99.2105L68.9695 99.8956L69.9155 99.1725C70.8266 98.5189 71.571 97.6601 72.0886 96.6655C72.6062 95.671 72.8824 94.5685 72.895 93.4474L72.7264 93.3985Z" fill="white"/>
<path d="M64.93 86.374C64.756 88.6629 64.2178 90.9953 62.8857 91.974C62.8857 91.974 64.5821 94.7957 68.9751 97.8784C71.7261 95.7744 71.2966 93.0505 71.2966 93.0505C68.3716 91.9631 68.5782 89.9352 69.8123 86.7002L67.5289 85.4715C67.3318 85.2544 67.0753 85.1 66.7913 85.0275C66.5072 84.955 66.2081 84.9677 65.9312 85.0639C65.6542 85.16 65.4117 85.3355 65.2337 85.5684C65.0557 85.8014 64.9501 86.0815 64.93 86.374Z" fill="#FF8B7B"/>
<path opacity="0.2" d="M67.5287 85.4715C67.3437 85.2671 67.1057 85.1178 66.8412 85.0402C66.5767 84.9626 66.2958 84.9596 66.0297 85.0316C65.7635 85.1036 65.5225 85.2478 65.3332 85.4483C65.1439 85.6487 65.0137 85.8976 64.957 86.1674C65.8244 87.9163 67.2233 89.3456 68.9531 90.2505C69.0151 89.0244 69.3045 87.8205 69.8067 86.7002L67.5287 85.4715Z" fill="black"/>
<path d="M61.374 79.1973C62.5103 83.6175 62.8964 85.5095 65.5985 87.3526C69.6599 90.1472 74.8412 87.7876 75.0424 83.1227C75.2327 78.92 73.3461 72.3958 68.6269 71.4606C67.5851 71.2476 66.5061 71.3051 65.4928 71.6274C64.4795 71.9498 63.5656 72.5264 62.8384 73.3021C62.1111 74.0779 61.5947 75.027 61.3384 76.059C61.082 77.091 61.0943 78.1714 61.374 79.1973Z" fill="#FF8B7B"/>
<path d="M72.623 72.374C69.9608 74.7405 66.8027 76.4812 63.3802 77.4684C63.3802 77.4684 66.7565 84.6505 60.4389 82.84C58.6067 76.7235 60.4389 73.5484 62.0699 72.0532C67.0936 70.4222 70.6276 69.8785 72.623 72.374Z" fill="#263238"/>
<path d="M61.1621 83.5522C61.5325 84.3531 62.2049 84.9747 63.0324 85.2812C64.1197 85.6726 64.7667 84.7375 64.5329 83.6501C64.3209 82.6769 63.4945 81.2959 62.3582 81.3666C62.1124 81.3876 61.8756 81.4691 61.669 81.6037C61.4623 81.7384 61.2922 81.9222 61.1738 82.1385C61.0554 82.3549 60.9923 82.5973 60.9903 82.8439C60.9882 83.0906 61.0473 83.3339 61.1621 83.5522Z" fill="#FF8B7B"/>
<path d="M54.4913 118.952L53.4419 120.501C53.3604 120.621 53.4963 120.773 53.7083 120.8L73.1289 123.29C73.2975 123.29 73.4443 123.247 73.4715 123.144L73.852 121.513C73.852 121.398 73.7433 121.284 73.5639 121.257L54.8066 118.854C54.7501 118.841 54.6911 118.843 54.6356 118.86C54.5802 118.877 54.5304 118.909 54.4913 118.952Z" fill="#E72176"/>
<path d="M56.7363 121.371L56.2361 121.306C56.1383 121.306 56.0676 121.23 56.0839 121.17L56.595 119.044C56.6144 119.008 56.6454 118.98 56.683 118.965C56.7205 118.949 56.7624 118.946 56.8016 118.957L57.3072 119.023C57.4051 119.023 57.4757 119.093 57.4594 119.158L56.9484 121.279C56.932 121.344 56.8396 121.382 56.7363 121.371Z" fill="#263238"/>
<path d="M71.6933 123.285L71.1932 123.225C71.0953 123.225 71.0246 123.149 71.0409 123.084L71.552 120.963C71.552 120.904 71.6607 120.86 71.7586 120.871L72.2642 120.936C72.3621 120.936 72.4328 121.012 72.4165 121.072L71.9054 123.198C71.8891 123.258 71.7966 123.301 71.6933 123.285Z" fill="#263238"/>
<path d="M64.2173 122.328L63.7171 122.263C63.6138 122.263 63.5432 122.192 63.5595 122.127L64.0705 120.007C64.0705 119.941 64.1793 119.903 64.2826 119.914L64.7828 119.979C64.8806 119.979 64.9513 120.056 64.9404 120.115L64.4239 122.241C64.4131 122.301 64.3152 122.339 64.2173 122.328Z" fill="#263238"/>
<path d="M68.9475 79.007C69.0128 79.3713 69.2629 79.6322 69.4912 79.5833C69.7195 79.5344 69.8663 79.2082 69.7957 78.8439C69.725 78.4796 69.4749 78.2186 69.252 78.2676C69.0291 78.3165 68.8931 78.6427 68.9475 79.007Z" fill="#263238"/>
<path d="M73.0581 78.2186C73.1287 78.5829 73.3788 78.8385 73.6017 78.795C73.8247 78.7515 73.9769 78.4144 73.9062 78.0501C73.8355 77.6858 73.5854 77.4303 73.3625 77.4738C73.1396 77.5173 72.9928 77.8544 73.0581 78.2186Z" fill="#263238"/>
<path d="M73.2427 77.5173L74.0691 77.0932C74.0691 77.0932 73.7864 77.8653 73.2427 77.5173Z" fill="#263238"/>
<path d="M71.9707 79.0342C72.4566 79.8001 73.0436 80.4968 73.716 81.1056C73.5567 81.2749 73.362 81.407 73.1459 81.4925C72.9298 81.578 72.6974 81.6148 72.4655 81.6004L71.9707 79.0342Z" fill="#FF5652"/>
<path d="M69.4044 83.0683C69.388 83.0873 69.3786 83.1114 69.378 83.1365C69.3773 83.1616 69.3853 83.1861 69.4007 83.206C69.4161 83.2258 69.4378 83.2397 69.4623 83.2454C69.4867 83.251 69.5124 83.248 69.5348 83.2369C69.9457 83.0273 70.4003 82.9181 70.8614 82.9181C71.3226 82.9181 71.7772 83.0273 72.188 83.2369C72.2126 83.2509 72.2418 83.2548 72.2692 83.2477C72.2966 83.2406 72.3201 83.223 72.3348 83.1988C72.3497 83.174 72.3546 83.1445 72.3485 83.1163C72.3424 83.088 72.3259 83.0631 72.3022 83.0466C71.8588 82.8195 71.3678 82.701 70.8696 82.701C70.3714 82.701 69.8804 82.8195 69.437 83.0466C69.437 83.0466 69.437 83.0575 69.4044 83.0683Z" fill="#263238"/>
<path d="M67.5286 77.887C67.5622 77.8663 67.5887 77.836 67.6047 77.8C67.718 77.5522 67.8885 77.3348 68.1021 77.1656C68.3157 76.9965 68.5663 76.8804 68.8335 76.8268C68.8621 76.8235 68.8898 76.8144 68.9149 76.8003C68.9401 76.7861 68.9621 76.7671 68.9798 76.7443C68.9975 76.7216 69.0105 76.6955 69.0181 76.6677C69.0256 76.6398 69.0276 76.6107 69.0238 76.5822C69.0211 76.5537 69.0127 76.5261 68.9991 76.501C68.9855 76.476 68.967 76.4539 68.9446 76.4361C68.9223 76.4183 68.8966 76.4052 68.8691 76.3976C68.8416 76.39 68.8128 76.3881 68.7845 76.3919C68.4447 76.4553 68.1249 76.5989 67.8516 76.8108C67.5784 77.0226 67.3595 77.2965 67.2133 77.6097C67.1922 77.6526 67.1858 77.7013 67.1951 77.7482C67.2044 77.795 67.2289 77.8375 67.2648 77.8691C67.3007 77.9007 67.346 77.9195 67.3937 77.9228C67.4414 77.926 67.4888 77.9134 67.5286 77.887Z" fill="#263238"/>
<path d="M74.2811 75.1305L74.3082 75.1033C74.3248 75.0798 74.3366 75.0532 74.3428 75.0252C74.3491 74.9971 74.3497 74.968 74.3446 74.9397C74.3396 74.9114 74.3289 74.8844 74.3134 74.8602C74.2978 74.836 74.2776 74.8152 74.2539 74.7988C73.9728 74.5968 73.6477 74.4648 73.3053 74.4137C72.963 74.3627 72.6135 74.394 72.2857 74.5053C72.2333 74.5281 72.1917 74.5701 72.1695 74.6227C72.1472 74.6753 72.146 74.7345 72.1661 74.788C72.1878 74.8412 72.2297 74.8837 72.2827 74.9062C72.3357 74.9286 72.3954 74.9291 72.4488 74.9076C72.7092 74.8223 72.9861 74.8005 73.2566 74.844C73.5271 74.8875 73.7833 74.995 74.0038 75.1577C74.0455 75.1874 74.0965 75.201 74.1475 75.196C74.1985 75.191 74.2459 75.1677 74.2811 75.1305Z" fill="#263238"/>
<path d="M69.1489 78.3057L69.9753 77.887C69.9753 77.887 69.6545 78.6536 69.1489 78.3057Z" fill="#263238"/>
<path d="M40.6812 154.634C39.9187 154.634 39.1871 154.333 38.6455 153.797C38.1038 153.26 37.7959 152.531 37.7888 151.769C37.7126 144.049 40.2843 137.53 45.2264 132.919C51.3103 127.243 60.7977 124.606 71.9542 125.487C79.7779 126.107 84.7961 124.204 90.6027 121.991C91.5596 121.632 92.522 121.263 93.5115 120.904C94.2325 120.641 95.0282 120.676 95.7235 121C96.4189 121.324 96.957 121.912 97.2194 122.633C97.4819 123.354 97.4472 124.149 97.1229 124.845C96.7987 125.54 96.2115 126.078 95.4905 126.341C94.5282 126.689 93.593 127.047 92.6633 127.401C86.7425 129.652 80.626 131.973 71.4975 131.256C61.9829 130.5 54.0559 132.593 49.1736 137.149C45.3678 140.672 43.5138 145.571 43.5736 151.715C43.5772 152.094 43.5059 152.471 43.3639 152.824C43.2218 153.176 43.0118 153.497 42.7457 153.768C42.4796 154.039 42.1628 154.255 41.8132 154.404C41.4636 154.552 41.0882 154.631 40.7084 154.634H40.6812Z" fill="#E72176"/>
<path d="M107.574 130.424L95.9397 134.687C94.9689 135.042 93.8966 134.998 92.9587 134.563C92.0207 134.128 91.294 133.338 90.9384 132.367L86.1338 119.252C85.7781 118.282 85.8227 117.209 86.2577 116.271C86.6926 115.333 87.4824 114.607 88.4532 114.251L100.088 109.989L107.569 130.409L107.574 130.424Z" fill="#E72176"/>
<path opacity="0.7" d="M107.574 130.424L95.9397 134.687C94.9689 135.042 93.8966 134.998 92.9587 134.563C92.0207 134.128 91.294 133.338 90.9384 132.367L86.1338 119.252C85.7781 118.282 85.8227 117.209 86.2577 116.271C86.6926 115.333 87.4824 114.607 88.4532 114.251L100.088 109.989L107.569 130.409L107.574 130.424Z" fill="white"/>
<path opacity="0.2" d="M94.9033 111.884L100.096 109.986L107.577 130.418L102.384 132.321C102.039 131.987 101.775 131.578 101.612 131.125L95.0882 113.297C94.9176 112.847 94.8543 112.363 94.9033 111.884Z" fill="#E72176"/>
<path d="M111.756 115.076L111.245 115.263L112.491 118.663L113.001 118.476L111.756 115.076Z" fill="#E72176"/>
<path d="M110.458 113.145L108.626 108.132C108.312 107.282 107.745 106.549 107.001 106.031C106.258 105.513 105.373 105.235 104.467 105.235C103.951 105.233 103.439 105.323 102.955 105.501L99.6498 106.713L99.4595 106.202L102.771 104.99C103.314 104.791 103.888 104.689 104.467 104.691C105.485 104.693 106.478 105.007 107.313 105.59C108.148 106.173 108.784 106.998 109.137 107.953L110.969 112.966L110.458 113.145Z" fill="#E72176"/>
<path d="M107.665 131.889L112.52 130.133C114.106 129.559 114.927 127.808 114.353 126.222L107.763 108.002C107.189 106.416 105.438 105.595 103.852 106.169L98.9969 107.925C97.4107 108.499 96.5899 110.25 97.1636 111.836L103.754 130.056C104.327 131.642 106.078 132.463 107.665 131.889Z" fill="#E72176"/>
<path d="M104.886 113.531C104.996 113.834 105.015 114.164 104.938 114.477C104.862 114.791 104.694 115.075 104.457 115.293C104.219 115.511 103.922 115.654 103.603 115.703C103.284 115.753 102.957 115.706 102.665 115.57C102.372 115.433 102.127 115.213 101.959 114.937C101.792 114.661 101.71 114.342 101.724 114.019C101.739 113.697 101.848 113.386 102.039 113.126C102.23 112.866 102.494 112.668 102.798 112.558C103.204 112.411 103.651 112.431 104.043 112.613C104.434 112.796 104.737 113.126 104.886 113.531Z" fill="#263238"/>
<path d="M108.947 124.617C109.057 124.92 109.075 125.249 108.999 125.562C108.922 125.876 108.755 126.159 108.517 126.377C108.28 126.595 107.983 126.738 107.664 126.787C107.345 126.837 107.019 126.791 106.727 126.655C106.434 126.519 106.189 126.299 106.021 126.024C105.853 125.748 105.771 125.429 105.785 125.107C105.798 124.785 105.907 124.474 106.097 124.213C106.288 123.953 106.551 123.755 106.854 123.644C107.055 123.57 107.269 123.537 107.483 123.546C107.697 123.555 107.908 123.606 108.102 123.697C108.296 123.787 108.471 123.915 108.616 124.073C108.761 124.231 108.873 124.416 108.947 124.617Z" fill="#263238"/>
<path d="M61.2817 123.307L61.2382 123.258C60.39 122.41 59.4929 121.485 58.6828 120.539C57.8727 119.593 57.079 118.647 56.3559 117.669C55.6469 116.714 55.0021 115.713 54.4258 114.673C54.0133 113.929 53.6624 113.153 53.3764 112.351C53.7026 111.264 54.0506 110.177 54.4638 109.133C54.9368 107.877 55.4696 106.643 56.0514 105.425C56.6331 104.207 57.2529 103.011 57.9217 101.842C58.2479 101.255 58.5904 100.673 58.9438 100.102L59.4875 99.2649C59.656 98.993 59.8572 98.7212 59.9986 98.4874L60.0584 98.4004C60.4449 97.8113 60.5875 97.0951 60.4563 96.4029C60.3251 95.7106 59.9302 95.0964 59.3549 94.6896C58.7796 94.2828 58.0689 94.1153 57.3725 94.2223C56.6761 94.3293 56.0485 94.7025 55.6219 95.2633C55.35 95.633 55.1434 95.9266 54.9259 96.2474C54.7085 96.5682 54.5127 96.8889 54.3061 97.2097C53.9092 97.8513 53.5232 98.4982 53.1535 99.1561C52.418 100.469 51.752 101.819 51.1582 103.201C50.8537 103.886 50.6145 104.588 50.3046 105.289C49.9947 105.99 49.7881 106.703 49.5706 107.431C49.1091 108.875 48.7297 110.343 48.4343 111.83V111.955C48.3499 112.351 48.3782 112.764 48.5159 113.145C49.0427 114.539 49.7422 115.862 50.5982 117.082C51.4042 118.239 52.3024 119.33 53.284 120.344C54.2402 121.32 55.2552 122.237 56.3232 123.089C57.3908 123.94 58.5113 124.723 59.6778 125.433C59.961 125.598 60.295 125.655 60.617 125.592C60.9391 125.529 61.2271 125.351 61.4272 125.091C61.6273 124.831 61.7256 124.507 61.7039 124.179C61.6821 123.852 61.5416 123.544 61.3089 123.312L61.2817 123.307Z" fill="#FF8B7B"/>
<path d="M67.5996 126.009L67.5289 125.868C67.3032 125.396 66.9711 124.984 66.5587 124.663C66.1464 124.343 65.6651 124.122 65.153 124.019L61.0264 123.182L59.0093 124.188C59.2268 126.449 62.4563 127.803 62.4563 127.803L63.3751 128.852C63.6849 129.204 64.1137 129.429 64.5792 129.485C65.0448 129.54 65.5143 129.421 65.8978 129.151L66.9852 128.374C67.3507 128.116 67.6129 127.737 67.7254 127.304C67.8378 126.871 67.7933 126.412 67.5996 126.009Z" fill="#FF8B7B"/>
<path d="M57.5791 92.2078C55.2902 93.2571 52.8545 96.8889 52.8545 96.8889L57.7477 106.05C57.7477 106.05 63.3096 99.64 62.842 96.4322C62.4615 93.7084 60.4933 90.8703 57.5791 92.2078Z" fill="#E72176"/>
<g opacity="0.3">
<path opacity="0.3" d="M57.5791 92.2078C55.2902 93.2571 52.8545 96.8889 52.8545 96.8889L57.7477 106.05C57.7477 106.05 63.3096 99.64 62.842 96.4322C62.4615 93.7084 60.4933 90.8703 57.5791 92.2078Z" fill="white"/>
</g>
<path d="M214.216 212.244C209.426 212.244 204.717 211.259 202.434 208.28C191.625 194.144 191.723 165.709 191.816 138.193C191.87 123.378 193.039 109.377 191.392 98.5037C190.424 92.0936 187.042 87.6952 183.628 85.4225C178.561 82.0734 171.601 83.873 168.627 84.6396C168.257 84.7431 167.869 84.7717 167.488 84.7237C167.106 84.6756 166.738 84.552 166.405 84.3599C166.071 84.1679 165.78 83.9113 165.547 83.6052C165.314 83.299 165.145 82.9495 165.048 82.5771C164.952 82.2047 164.931 81.8168 164.987 81.4362C165.042 81.0556 165.173 80.6899 165.372 80.3605C165.57 80.0311 165.833 79.7446 166.143 79.5178C166.454 79.291 166.807 79.1284 167.181 79.0396C170.894 78.0773 179.604 75.8318 186.814 80.5946C191.68 83.8078 195.888 89.5437 197.111 97.6392C198.824 108.948 197.655 123.155 197.601 138.193C197.508 164.741 197.416 192.192 207.028 204.746C207.806 205.757 210.834 206.665 215.863 206.404C216.309 206.404 216.744 206.355 217.173 206.317C216.979 205.923 216.878 205.49 216.88 205.051C216.88 204.283 217.185 203.548 217.727 203.005C218.269 202.463 219.005 202.158 219.772 202.158C226.095 202.158 229.423 202.702 230.064 205.594C230.249 206.426 230.347 208.514 227.291 209.944C225.008 211.015 219.56 212.244 214.216 212.244Z" fill="#E72176"/>
<path d="M150.92 214.739L145.021 212.417L148.13 202.191L154.035 204.507L150.92 214.739Z" fill="#FFC3BD"/>
<path d="M144.879 211.792L151.534 214.402C151.618 214.436 151.688 214.498 151.734 214.576C151.779 214.655 151.797 214.747 151.784 214.837L151.132 218.98C151.115 219.08 151.075 219.175 151.017 219.258C150.958 219.341 150.882 219.41 150.793 219.459C150.704 219.509 150.606 219.538 150.504 219.544C150.403 219.551 150.301 219.534 150.207 219.496C148.538 218.806 145.923 217.664 143.808 216.832C142.509 216.321 140.035 215.506 138.235 214.799C136.436 214.092 136.903 212.222 137.692 212.352C141.274 212.929 142.645 212.314 144.074 211.781C144.334 211.682 144.622 211.686 144.879 211.792Z" fill="#263238"/>
<path opacity="0.2" d="M154.035 204.512L148.13 202.191L146.526 207.464L152.431 209.786L154.035 204.512Z" fill="black"/>
<path d="M161.413 125.351C161.413 125.351 156.074 151.742 154.035 164.758C151.74 179.345 145.678 205.991 145.678 205.991L153.524 209.074C153.524 209.074 164.729 181.791 166.289 168.58C170.992 157.842 180.344 126.243 180.344 126.243L161.413 125.351Z" fill="#E72176"/>
<path d="M145.297 206.035L153.909 209.422L155.383 206.812L145.754 202.821L145.297 206.035Z" fill="#263238"/>
<path d="M143.188 211.906C142.888 211.813 142.627 211.621 142.449 211.363C142.399 211.267 142.373 211.161 142.373 211.053C142.373 210.945 142.399 210.839 142.449 210.743C142.471 210.684 142.509 210.632 142.559 210.594C142.609 210.555 142.668 210.532 142.731 210.525C143.302 210.466 144.362 211.857 144.466 212.021C144.477 212.038 144.484 212.059 144.484 212.08C144.484 212.102 144.477 212.122 144.466 212.14C144.454 212.158 144.438 212.172 144.419 212.181C144.399 212.19 144.378 212.192 144.357 212.189C143.958 212.138 143.566 212.043 143.188 211.906ZM142.9 210.77C142.856 210.749 142.807 210.739 142.758 210.743C142.726 210.743 142.688 210.743 142.65 210.835C142.613 210.9 142.594 210.973 142.594 211.047C142.594 211.122 142.613 211.195 142.65 211.259C142.807 211.548 143.351 211.803 144.139 211.934C143.808 211.467 143.387 211.071 142.9 210.77Z" fill="#E72176"/>
<path d="M144.346 212.184C144.328 212.178 144.313 212.166 144.303 212.151C143.955 211.738 143.465 210.46 143.759 210.02C143.804 209.952 143.872 209.901 143.95 209.876C144.028 209.851 144.112 209.854 144.188 209.884C144.269 209.904 144.345 209.942 144.41 209.993C144.476 210.045 144.53 210.109 144.569 210.183C144.906 210.786 144.526 212.059 144.509 212.113C144.503 212.132 144.491 212.15 144.476 212.163C144.461 212.176 144.442 212.185 144.422 212.189C144.41 212.195 144.397 212.198 144.383 212.197C144.37 212.196 144.357 212.191 144.346 212.184ZM144.161 210.107H144.118C143.976 210.074 143.944 210.107 143.927 210.156C143.764 210.417 144.031 211.341 144.341 211.847C144.496 211.344 144.496 210.806 144.341 210.303C144.306 210.218 144.243 210.148 144.161 210.107Z" fill="#E72176"/>
<path opacity="0.2" d="M172.922 141.33C169.965 144.995 168.796 154.335 168.807 162.121C170.802 156.624 173.091 149.643 175.103 143.304L172.922 141.33Z" fill="black"/>
<path d="M186.422 215.723H180.083L179.24 205.067H185.58L186.422 215.723Z" fill="#FFC3BD"/>
<path d="M179.724 215.19H186.874C186.965 215.19 187.054 215.221 187.126 215.278C187.197 215.336 187.246 215.416 187.265 215.506L188.173 219.594C188.194 219.694 188.193 219.797 188.169 219.896C188.145 219.996 188.098 220.088 188.034 220.167C187.969 220.246 187.887 220.309 187.795 220.352C187.702 220.395 187.601 220.417 187.499 220.415C185.694 220.383 182.85 220.274 180.578 220.274C179.175 220.274 176.576 220.421 174.646 220.421C172.716 220.421 172.471 218.512 173.249 218.338C176.799 217.561 177.854 216.495 178.985 215.473C179.189 215.292 179.452 215.191 179.724 215.19Z" fill="#263238"/>
<path opacity="0.2" d="M185.58 205.067H179.235L179.675 210.564H186.02L185.58 205.067Z" fill="black"/>
<path d="M169.09 125.683C169.09 125.683 172.602 155.091 173.341 165.677C174.369 180.41 178.343 209.498 178.343 209.498H186.771C186.771 209.498 187.673 179.791 186.151 166.574C188.249 155.042 187.586 126.569 187.586 126.569L169.09 125.683Z" fill="#E72176"/>
<path d="M178.006 209.677H187.26L187.678 206.714L177.256 206.518L178.006 209.677Z" fill="#263238"/>
<path d="M178.174 215.913C177.861 215.937 177.549 215.855 177.288 215.68C177.207 215.609 177.144 215.519 177.104 215.419C177.065 215.319 177.049 215.211 177.06 215.103C177.06 215.039 177.078 214.976 177.111 214.922C177.145 214.867 177.193 214.823 177.25 214.793C177.761 214.532 179.245 215.446 179.425 215.549C179.444 215.56 179.459 215.576 179.469 215.595C179.478 215.615 179.482 215.636 179.479 215.658C179.474 215.68 179.464 215.7 179.448 215.716C179.433 215.732 179.414 215.744 179.392 215.75C178.994 215.851 178.585 215.905 178.174 215.913ZM177.489 214.962C177.441 214.959 177.392 214.968 177.348 214.989C177.321 214.989 177.288 215.033 177.283 215.114C177.271 215.187 177.279 215.262 177.305 215.332C177.33 215.401 177.373 215.463 177.43 215.511C177.68 215.723 178.283 215.75 179.061 215.593C178.588 215.284 178.06 215.07 177.506 214.962H177.489Z" fill="#E72176"/>
<path d="M179.371 215.75H179.316C178.843 215.489 177.919 214.483 178.017 213.967C178.033 213.887 178.077 213.815 178.14 213.763C178.204 213.712 178.283 213.684 178.365 213.684C178.447 213.673 178.531 213.679 178.611 213.702C178.69 213.726 178.764 213.766 178.827 213.82C179.371 214.261 179.474 215.587 179.479 215.642C179.481 215.661 179.477 215.681 179.468 215.699C179.46 215.717 179.447 215.733 179.431 215.745C179.411 215.751 179.391 215.753 179.371 215.75ZM178.441 213.885H178.392C178.251 213.885 178.24 213.972 178.234 214C178.175 214.299 178.778 215.087 179.235 215.424C179.202 214.899 179.012 214.395 178.691 213.978C178.62 213.92 178.532 213.887 178.441 213.885Z" fill="#E72176"/>
<path d="M171.998 85.1289L166.92 85.0637C165.213 85.0637 163.517 85.0093 161.837 84.9821C161.326 84.9821 160.826 84.9495 160.32 84.9277C160.353 84.9277 160.374 84.8679 160.401 84.8408C160.76 84.4602 161.119 84.0687 161.489 83.6936C161.674 83.4979 161.855 83.3076 162.033 83.1227C162.201 82.9379 162.419 82.7312 162.533 82.579L162.995 81.9918C163.359 81.5272 163.568 80.9596 163.591 80.3696C163.615 79.7796 163.452 79.1972 163.126 78.7051C162.8 78.2129 162.327 77.8358 161.774 77.6275C161.222 77.4192 160.618 77.3901 160.048 77.5445L159.042 77.8163C158.732 77.9087 158.422 78.012 158.113 78.1153C157.504 78.3274 156.906 78.5612 156.313 78.8167C155.119 79.344 153.965 79.9582 152.86 80.6544C151.717 81.3854 150.635 82.2092 149.626 83.1173C148.557 84.0884 147.59 85.1649 146.739 86.3305C146.524 86.6213 146.341 86.9349 146.195 87.2656C145.69 88.4228 145.665 89.7332 146.126 90.9087C146.587 92.0842 147.495 93.0286 148.652 93.5343L149.147 93.7518C150.264 94.2325 151.421 94.6145 152.605 94.8936C153.638 95.16 154.617 95.334 155.579 95.4971C156.541 95.6602 157.482 95.7907 158.417 95.9048C159.352 96.019 160.276 96.106 161.201 96.1821C163.044 96.3452 164.871 96.4268 166.692 96.4811C168.513 96.5355 170.297 96.5355 172.189 96.4485C173.664 96.3855 175.056 95.749 176.069 94.6745C177.082 93.6 177.636 92.1725 177.612 90.696C177.587 89.2195 176.988 87.8108 175.94 86.7699C174.893 85.729 173.48 85.1383 172.004 85.1235L171.998 85.1289Z" fill="#FFC3BD"/>
<path d="M174.956 95.0512C170.568 100.053 160.01 98.1829 160.01 98.1829L160.592 85.7215C164.211 84.9251 167.901 84.497 171.607 84.4439C177.805 84.433 178.468 91.0388 174.956 95.0512Z" fill="#263238"/>
<path d="M163.245 91.2182C162.984 93.2299 162.701 95.9375 162.532 99.5802C160.243 111.161 159.39 119.365 161.412 125.351C163.011 127.325 183.84 126.944 187.586 126.563C189.76 121.181 189.989 105.729 190.244 92.7406C190.276 90.9507 189.666 89.2087 188.524 87.8302C187.382 86.4517 185.784 85.5281 184.019 85.2268C179.332 84.3959 174.55 84.2348 169.818 84.7483C168.157 84.9373 166.607 85.6772 165.416 86.8498C164.224 88.0225 163.46 89.5604 163.245 91.2182Z" fill="#263238"/>
<path opacity="0.2" d="M183.454 99.1235C183.524 103.082 186.395 109.405 189.624 112.612C189.82 109.269 189.945 105.642 190.043 101.983L183.454 99.1235Z" fill="black"/>
<path d="M201.602 106.817L201.417 106.382C200.657 104.568 199.769 102.811 198.759 101.124C197.791 99.4932 196.747 97.9546 195.665 96.4703C194.583 94.986 193.436 93.567 192.261 92.186C191.663 91.501 191.071 90.8159 190.446 90.1526L189.505 89.1631L188.505 88.1518C187.457 87.1171 186.047 86.5311 184.574 86.518C183.102 86.505 181.682 87.0658 180.616 88.0818C179.55 89.0977 178.921 90.4888 178.863 91.9603C178.805 93.4319 179.323 94.8681 180.306 95.9647L180.469 96.1441L183.66 99.6944C184.748 100.901 185.786 102.13 186.819 103.353C187.319 103.968 187.836 104.582 188.303 105.207C188.771 105.833 189.266 106.436 189.733 107.056C190.408 107.997 191.06 108.932 191.642 109.85C191.553 110.314 191.44 110.774 191.305 111.226C190.914 112.543 190.455 113.839 189.929 115.108C189.385 116.451 188.809 117.826 188.211 119.18C187.613 120.534 186.971 121.948 186.401 123.307L186.346 123.426C186.096 124.027 186.058 124.696 186.238 125.321C186.419 125.946 186.808 126.491 187.34 126.866C187.873 127.24 188.517 127.422 189.166 127.381C189.816 127.34 190.432 127.078 190.913 126.64C192.112 125.528 193.25 124.352 194.322 123.117C195.409 121.895 196.43 120.608 197.383 119.256C197.867 118.577 198.329 117.87 198.786 117.136C199.26 116.39 199.694 115.618 200.085 114.825C200.525 113.96 200.907 113.067 201.227 112.15C201.644 110.977 201.879 109.747 201.923 108.502C201.937 107.924 201.827 107.349 201.602 106.817Z" fill="#FFC3BD"/>
<path d="M184.389 85.2975C191.723 86.5534 196.502 96.4812 196.502 96.4812L187.662 105.99C187.662 105.99 182.567 100.803 179.506 95.9973C176.206 90.767 179.137 84.4058 184.389 85.2975Z" fill="#263238"/>
<path d="M170.992 69.6447C169.764 67.5841 169.361 64.7514 171.612 61.8645C171.174 61.9194 170.728 61.846 170.331 61.6529C169.933 61.4599 169.6 61.1557 169.372 60.7771C171.837 58.7606 174.936 57.682 178.12 57.7324C184.699 57.7324 185.188 60.2715 184.965 62.0058C189.467 62.294 192.751 73.9996 181.339 76.0711C174.809 69.1934 170.992 69.6447 170.992 69.6447Z" fill="#263238"/>
<path d="M184.552 62.2179C184.552 62.2179 186.384 60.3476 184.106 58.0858C184.617 58.2259 185.082 58.4958 185.458 58.8693C185.833 59.2428 186.105 59.7071 186.248 60.2171C186.569 61.5328 185.683 62.5876 184.552 62.2179Z" fill="#263238"/>
<path d="M182.029 74.6412C181.855 78.2458 181.529 82.3452 182.133 85.2214C181.197 86.6948 178.805 88.3911 174.521 88.7717C172.999 87.9072 170.987 85.7922 171.688 84.7049C173.51 83.5359 174.282 79.9965 173.76 77.3488L182.029 74.6412Z" fill="#FFC3BD"/>
<path opacity="0.2" d="M179.942 75.3208L173.749 77.3488C173.96 78.4763 173.969 79.6323 173.776 80.7631C175.625 80.7033 178.186 79.3115 179.148 78.0066C179.461 77.6398 179.694 77.211 179.831 76.7482C179.968 76.2855 180.005 75.7991 179.942 75.3208Z" fill="black"/>
<path d="M183.834 68.9324C182.687 73.3526 182.241 76.0004 179.534 77.8544C175.462 80.6435 170.34 77.5173 170.139 72.847C169.965 68.6388 171.868 62.1146 176.598 61.1849C177.639 60.976 178.717 61.0369 179.728 61.3617C180.74 61.6866 181.651 62.2646 182.376 63.0409C183.101 63.8172 183.616 64.766 183.871 65.7971C184.126 66.8283 184.114 67.9076 183.834 68.9324Z" fill="#FFC3BD"/>
<path d="M182.921 62.6039C180.98 63.9849 178.571 69.835 183.465 72.1837C187.858 68.3235 186.721 62.6039 182.921 62.6039Z" fill="#263238"/>
<path d="M184.041 63.3052C184.873 59.4559 175.157 57.466 172.08 61.9623C171.036 64.6699 183.454 67.0621 184.041 63.3052Z" fill="#263238"/>
<path d="M176.794 73.6245C175.784 73.168 174.702 72.8938 173.597 72.8144C173.581 72.8143 173.566 72.8175 173.552 72.8235C173.538 72.8296 173.525 72.8385 173.514 72.8497C173.503 72.8609 173.495 72.8741 173.49 72.8886C173.484 72.9031 173.482 72.9185 173.483 72.934C173.489 72.9691 173.506 73.0012 173.533 73.0249C173.56 73.0486 173.594 73.0625 173.629 73.0645C174.689 73.141 175.726 73.4023 176.696 73.8365C176.726 73.8499 176.761 73.8511 176.792 73.84C176.823 73.8289 176.849 73.8062 176.864 73.7767C176.87 73.7621 176.873 73.7464 176.873 73.7307C176.873 73.7149 176.869 73.6994 176.862 73.6851C176.856 73.6708 176.846 73.658 176.834 73.6476C176.823 73.6372 176.809 73.6293 176.794 73.6245Z" fill="#263238"/>
<path d="M184.894 73.7658C184.107 74.6021 183.02 75.0927 181.871 75.1305C180.349 75.1631 179.963 73.7115 180.697 72.4719C181.36 71.3845 182.948 69.9926 184.329 70.5472C185.71 71.1017 185.851 72.7274 184.894 73.7658Z" fill="#FFC3BD"/>
<path d="M176.804 68.8563C176.734 69.2206 176.484 69.4816 176.261 69.4326C176.038 69.3837 175.891 69.0521 175.962 68.6878C176.032 68.3235 176.283 68.068 176.505 68.1441C176.728 68.2202 176.875 68.4757 176.804 68.8563Z" fill="#263238"/>
<path d="M172.689 68.0571C172.618 68.4214 172.368 68.6769 172.145 68.6334C171.922 68.5899 171.77 68.2528 171.841 67.8886C171.911 67.5243 172.162 67.2633 172.384 67.3123C172.607 67.3612 172.738 67.6928 172.689 68.0571Z" fill="#263238"/>
<path d="M173.961 68.4757C173.309 69.5048 172.518 70.4395 171.612 71.254C172.156 71.9771 173.358 71.8357 173.358 71.8357L173.961 68.4757Z" fill="#ED847E"/>
<path d="M176.212 66.7414C176.251 66.7329 176.291 66.7344 176.329 66.7458C176.367 66.7572 176.402 66.7782 176.429 66.8066C176.604 67.0176 176.826 67.1843 177.077 67.2929C177.329 67.4016 177.602 67.4492 177.875 67.4319C177.933 67.424 177.991 67.4389 178.038 67.4735C178.085 67.508 178.116 67.5594 178.126 67.6167C178.13 67.645 178.129 67.6739 178.122 67.7017C178.115 67.7296 178.103 67.7557 178.085 67.7786C178.068 67.8014 178.046 67.8206 178.022 67.8348C177.997 67.849 177.969 67.8581 177.941 67.8614C177.596 67.8891 177.249 67.8341 176.929 67.7007C176.609 67.5674 176.326 67.3597 176.103 67.0948C176.083 67.075 176.066 67.0513 176.055 67.0252C176.044 66.999 176.039 66.9709 176.039 66.9425C176.039 66.9141 176.044 66.886 176.055 66.8599C176.066 66.8337 176.083 66.8101 176.103 66.7903C176.135 66.7663 176.172 66.7496 176.212 66.7414Z" fill="#263238"/>
<path d="M171.417 65.5344C171.372 65.525 171.331 65.5 171.303 65.4637C171.284 65.441 171.271 65.4149 171.263 65.3869C171.255 65.3589 171.252 65.3296 171.256 65.3007C171.26 65.2718 171.269 65.2439 171.283 65.2186C171.298 65.1934 171.317 65.1714 171.341 65.1538C171.608 64.9349 171.923 64.7828 172.261 64.71C172.598 64.6372 172.948 64.6458 173.282 64.7351C173.337 64.7538 173.382 64.7932 173.409 64.845C173.435 64.8968 173.44 64.9569 173.423 65.0124C173.401 65.0649 173.361 65.1077 173.31 65.1327C173.259 65.1577 173.201 65.1633 173.146 65.1483C172.88 65.0806 172.602 65.0768 172.335 65.1373C172.067 65.1978 171.818 65.3208 171.607 65.4963C171.582 65.5191 171.551 65.5347 171.517 65.5414C171.484 65.5481 171.449 65.5457 171.417 65.5344Z" fill="#263238"/>
<path d="M188.967 123.149L184.296 123.117L186.71 128.477C186.71 128.477 190.696 127.624 190.478 125.46L188.967 123.149Z" fill="#FFC3BD"/>
<path d="M181.921 126.797L182.687 128.309C182.893 128.711 183.242 129.022 183.666 129.181C184.089 129.34 184.556 129.335 184.976 129.168L186.711 128.477L184.297 123.117L182.443 124.53C182.103 124.786 181.865 125.154 181.769 125.569C181.674 125.983 181.727 126.418 181.921 126.797Z" fill="#FFC3BD"/>
<path d="M153.415 119.202C152.851 119.196 152.3 119.026 151.832 118.712C151.363 118.398 150.996 117.954 150.776 117.434C150.556 116.914 150.493 116.342 150.593 115.787C150.694 115.232 150.955 114.718 151.343 114.309C153.42 112.167 155.296 110.503 156.949 109.051C160.94 105.534 162.315 104.158 162.185 101.521C161.989 99.8942 161.643 98.2889 161.152 96.7258C159.961 92.3491 158.613 87.3961 160.923 83.4218C162.163 81.2851 164.267 79.8225 167.181 79.0722C167.918 78.8974 168.694 79.0184 169.342 79.4094C169.991 79.8004 170.46 80.4301 170.65 81.1633C170.839 81.8964 170.733 82.6746 170.355 83.3307C169.977 83.9868 169.357 84.4685 168.627 84.6722C166.578 85.2159 166.083 86.0478 165.909 86.3305C164.821 88.2062 165.871 92.0882 166.719 95.2035C167.333 97.168 167.745 99.1902 167.948 101.238C168.22 106.811 164.93 109.715 160.76 113.39C159.189 114.782 157.4 116.358 155.475 118.337C155.207 118.612 154.886 118.83 154.533 118.978C154.179 119.126 153.799 119.203 153.415 119.202Z" fill="#E72176"/>
<path d="M159.76 77.6641L164.283 76.506L163.228 82.2909C163.228 82.2909 159.156 82.4159 158.852 80.2683L159.76 77.6641Z" fill="#FFC3BD"/>
<path d="M167.458 79.5724L167.11 81.0839C167.004 81.5456 166.728 81.9506 166.337 82.2192C165.947 82.4878 165.47 82.6007 165.001 82.5355L163.229 82.2909L164.283 76.506L166.36 77.4031C166.768 77.5789 167.102 77.8923 167.302 78.2887C167.503 78.6852 167.558 79.1395 167.458 79.5724Z" fill="#FFC3BD"/>
<path d="M151.798 109.689L151.675 109.566C151.125 109.016 150.233 109.016 149.683 109.566L133.651 125.604C133.101 126.154 133.101 127.046 133.651 127.596L133.774 127.719C134.324 128.268 135.216 128.268 135.766 127.718L151.798 111.68C152.348 111.13 152.348 110.239 151.798 109.689Z" fill="#263238"/>
<path d="M160.154 118.034L160.031 117.911C159.481 117.361 158.589 117.361 158.039 117.911L142.004 133.946C141.454 134.496 141.454 135.388 142.004 135.938L142.127 136.061C142.677 136.611 143.569 136.611 144.119 136.061L160.154 120.025C160.704 119.475 160.704 118.584 160.154 118.034Z" fill="#263238"/>
<path d="M138.709 115.659L150.008 104.36C150.37 103.998 150.8 103.711 151.273 103.515C151.746 103.319 152.252 103.218 152.764 103.218C153.276 103.218 153.783 103.319 154.256 103.515C154.729 103.711 155.159 103.998 155.521 104.36L165.397 114.236C165.759 114.598 166.046 115.028 166.242 115.501C166.438 115.974 166.539 116.481 166.539 116.993C166.539 117.505 166.438 118.012 166.242 118.485C166.046 118.958 165.759 119.387 165.397 119.749L154.098 131.048L138.709 115.659Z" fill="#E72176"/>
<path opacity="0.7" d="M138.709 115.659L150.008 104.36C150.37 103.998 150.8 103.711 151.273 103.515C151.746 103.319 152.252 103.218 152.764 103.218C153.276 103.218 153.783 103.319 154.256 103.515C154.729 103.711 155.159 103.998 155.521 104.36L165.397 114.236C165.759 114.598 166.046 115.028 166.242 115.501C166.438 115.974 166.539 116.481 166.539 116.993C166.539 117.505 166.438 118.012 166.242 118.485C166.046 118.958 165.759 119.387 165.397 119.749L154.098 131.048L138.709 115.659Z" fill="white"/>
<path opacity="0.2" d="M142.606 111.732L138.692 115.641L154.084 131.033L157.993 127.118C157.837 126.663 157.579 126.25 157.237 125.911L143.813 112.515C143.478 112.163 143.064 111.895 142.606 111.732Z" fill="#E72176"/>
<path d="M138.032 113.669L137.751 113.95C136.558 115.143 136.558 117.078 137.751 118.271L151.456 131.977C152.65 133.17 154.584 133.17 155.778 131.977L156.058 131.696C157.252 130.503 157.252 128.568 156.058 127.375L142.353 113.669C141.159 112.476 139.225 112.476 138.032 113.669Z" fill="#E72176"/>
</g>
<defs>
<clipPath id="clip0">
<rect width="240" height="262" fill="white"/>
</clipPath>
</defs>
</svg>
