<svg width="17" height="21" viewBox="0 0 17 21" fill="none" xmlns="http://www.w3.org/2000/svg">
<path d="M15.5584 9.56667V6.3C15.5584 2.8 12.7584 0.116669 9.08337 0.116669H8.2667C4.4167 0.175002 1.4417 2.85834 1.4417 6.3V9.56667C1.0917 9.56667 0.741699 9.85833 0.741699 10.2667V16.3917C0.741699 18.9 2.8417 21.0583 5.2917 21.0583H12C14.3917 21.0583 16.2584 19.0167 16.2584 16.3917V10.2667C16.2584 9.85833 15.9667 9.56667 15.5584 9.56667ZM8.2667 1.575H9.08337C12.0584 1.575 14.1584 3.55834 14.1584 6.35834V9.625H2.8417V6.35834C2.8417 3.325 5.58337 1.575 8.2667 1.575ZM14.8584 16.3917C14.8584 17.9667 13.8084 19.6583 12 19.6583H5.2917C3.60003 19.6583 2.1417 18.1417 2.1417 16.3917V10.9667H14.8584V16.3917Z" fill="#9C9C9C"/>
<path d="M7.45003 15.225V16.9167C7.45003 17.2667 7.7417 17.6167 8.15003 17.6167H8.85003C9.20003 17.6167 9.55003 17.325 9.55003 16.9167V15.225C9.95836 14.9333 10.25 14.4083 10.25 13.8833C10.25 12.95 9.4917 12.1917 8.55836 12.1917C7.62503 12.1917 6.86669 12.95 6.86669 13.8833C6.80836 14.4083 7.0417 14.9333 7.45003 15.225Z" fill="#9C9C9C"/>
</svg>
