<svg width="28" height="29" viewBox="0 0 28 29" fill="none" xmlns="http://www.w3.org/2000/svg">
<path fill-rule="evenodd" clip-rule="evenodd" d="M7.93333 18.9333C8.55556 18.5444 9.02222 17.8444 9.1 17.0667L9.56667 13.0222C9.8 10.7667 11.7444 9.05556 14 9.05556C16.2556 9.05556 18.2 10.7667 18.4333 13.0222L18.9 17.0667C18.9778 17.8444 19.4444 18.5444 20.0667 18.9333H7.93333ZM14 21.8111C13.2222 21.8111 12.6 21.4222 12.2111 20.8H15.7889C15.4 21.4222 14.7778 21.8111 14 21.8111ZM21.3889 17.4556C21.0778 17.4556 20.7667 17.2222 20.7667 16.8333L20.3 12.7889C19.9889 10.0667 18.0444 7.96667 15.4778 7.34445C15.4778 7.18889 15.5556 7.03333 15.5556 6.87778C15.5556 6.02222 14.8556 5.32222 14 5.32222C13.1444 5.32222 12.4444 6.02222 12.4444 6.87778C12.4444 7.03333 12.4444 7.18889 12.5222 7.34445C9.95556 7.96667 8.01111 10.0667 7.7 12.7889L7.23333 16.8333C7.23333 17.1444 6.92222 17.4556 6.61111 17.4556C5.67778 17.4556 4.9 18.1556 4.82222 19.0111C4.74444 19.9444 5.52222 20.8 6.53333 20.8H10.1889C10.6556 22.4333 12.2111 23.6778 14 23.6778C15.7889 23.6778 17.3444 22.4333 17.8111 20.8H21.4667C22.4 20.8 23.1778 20.0222 23.1778 19.0111C23.1 18.0778 22.3222 17.4556 21.3889 17.4556Z" fill="#BABABA"/>
<path fill-rule="evenodd" clip-rule="evenodd" d="M14 26.6333C7.31111 26.6333 1.86667 21.1889 1.86667 14.5C1.86667 7.81111 7.31111 2.36667 14 2.36667C20.6889 2.36667 26.1333 7.81111 26.1333 14.5C26.1333 21.1889 20.6889 26.6333 14 26.6333ZM14 0.5C6.3 0.5 0 6.8 0 14.5C0 22.2 6.3 28.5 14 28.5C21.7 28.5 28 22.2 28 14.5C28 6.8 21.7 0.5 14 0.5Z" fill="#BABABA"/>
</svg>
