<svg width="21" height="21" viewBox="0 0 21 21" fill="none" xmlns="http://www.w3.org/2000/svg">
<path d="M15.2677 14.3225L15.4994 14.0901C16.6581 12.6375 17.2375 10.8364 17.2375 8.97706C17.2375 6.76916 16.3685 4.67746 14.8042 3.10868C13.24 1.53991 11.2123 0.668365 8.9528 0.668365C4.37595 0.668365 0.668121 4.44505 0.668121 8.97706C0.668121 11.185 1.53714 13.2767 3.10138 14.8454C4.66563 16.4142 6.75128 17.2858 8.9528 17.2858C10.8067 17.2858 12.6027 16.6466 14.109 15.4846L14.3407 15.3103L14.5725 15.5427L19.7287 20.7138L20.7136 19.7261L15.4994 14.4968L15.2677 14.3225ZM8.9528 15.9494C7.09889 15.9494 5.36084 15.2522 4.08628 13.9158C2.81171 12.5794 2.05856 10.8364 2.05856 8.97706C2.05856 7.11777 2.75378 5.37469 4.08628 4.09643C5.41878 2.81817 7.09889 2.06283 8.9528 2.06283C10.8067 2.06283 12.5448 2.76007 13.8193 4.09643C15.0939 5.43279 15.847 7.11777 15.847 8.97706C15.847 12.8118 12.7765 15.9494 8.9528 15.9494Z" fill="#898989"/>
</svg>
