<svg width="21" height="21" viewBox="0 0 21 21" fill="none" xmlns="http://www.w3.org/2000/svg">
<path fill-rule="evenodd" clip-rule="evenodd" d="M0 0.675C0 0.302208 0.302208 0 0.675 0H11.675C12.0478 0 12.35 0.302208 12.35 0.675C12.35 1.04779 12.0478 1.35 11.675 1.35H1.35V19.65H11.675C12.0478 19.65 12.35 19.9472 12.35 20.32C12.35 20.6928 12.0478 21 11.675 21H0.675C0.302208 21 0 20.6928 0 20.32V0.675Z" fill="#BABABA"/>
<path fill-rule="evenodd" clip-rule="evenodd" d="M13.8477 4.0277C14.1113 3.7641 14.5387 3.7641 14.8023 4.0277L20.8023 10.0277C21.0659 10.2913 21.0659 10.7187 20.8023 10.9823L14.8023 16.9823C14.5387 17.2459 14.1113 17.2459 13.8477 16.9823C13.5841 16.7187 13.5841 16.2913 13.8477 16.0277L18.6954 11.18H6.82499C6.4522 11.18 6.14999 10.8778 6.14999 10.505C6.14999 10.1322 6.4522 9.83 6.82499 9.83H18.6954L13.8477 4.9823C13.5841 4.71869 13.5841 4.29131 13.8477 4.0277Z" fill="#BABABA"/>
</svg>
