<svg width="240" height="284" viewBox="0 0 240 284" fill="none" xmlns="http://www.w3.org/2000/svg">
<g clip-path="url(#clip0)">
<rect width="240" height="284" fill="white"/>
<path d="M255.922 213.984H-15.9224V214.12H255.922V213.984Z" fill="#EBEBEB"/>
<path d="M30.6066 219.16H12.5996V219.296H30.6066V219.16Z" fill="#EBEBEB"/>
<path d="M106.408 219.231H77.1245V219.367H106.408V219.231Z" fill="#EBEBEB"/>
<path d="M52.0169 221.966H41.5835V222.102H52.0169V221.966Z" fill="#EBEBEB"/>
<path d="M226.563 221.901H216.108V222.036H226.563V221.901Z" fill="#EBEBEB"/>
<path d="M211.264 221.901H194.795V222.036H211.264V221.901Z" fill="#EBEBEB"/>
<path d="M185.726 221.003H162.587V221.139H185.726V221.003Z" fill="#EBEBEB"/>
<path d="M112.932 189.736H7.95108C7.12867 189.734 6.34043 189.407 5.75941 188.825C5.17838 188.243 4.85205 187.454 4.85205 186.631V39.0579C4.85921 38.2402 5.1887 37.4583 5.76895 36.8821C6.3492 36.306 7.13336 35.982 7.95108 35.9806H112.932C113.755 35.9806 114.545 36.3077 115.127 36.8899C115.709 37.4721 116.037 38.2617 116.037 39.0851V186.631C116.037 187.455 115.709 188.244 115.127 188.827C114.545 189.409 113.755 189.736 112.932 189.736ZM7.95108 36.0893C7.16472 36.0908 6.41105 36.4042 5.85552 36.9607C5.29998 37.5173 4.98797 38.2715 4.98797 39.0579V186.631C4.98797 187.418 5.29998 188.172 5.85552 188.729C6.41105 189.285 7.16472 189.599 7.95108 189.6H112.932C113.719 189.599 114.473 189.285 115.03 188.729C115.586 188.173 115.899 187.418 115.901 186.631V39.0579C115.899 38.271 115.586 37.5168 115.03 36.9604C114.473 36.404 113.719 36.0908 112.932 36.0893H7.95108Z" fill="#EBEBEB"/>
<path d="M230.538 189.736H125.551C124.728 189.734 123.94 189.407 123.358 188.825C122.776 188.243 122.448 187.454 122.447 186.631V39.0579C122.455 38.2397 122.786 37.4578 123.367 36.8818C123.948 36.3058 124.733 35.982 125.551 35.9806H230.538C231.354 35.9834 232.137 36.308 232.716 36.8841C233.295 37.4601 233.624 38.2411 233.631 39.0579V186.631C233.631 187.453 233.306 188.241 232.726 188.823C232.146 189.405 231.359 189.733 230.538 189.736ZM125.551 36.0893C124.764 36.0908 124.01 36.404 123.454 36.9604C122.897 37.5168 122.584 38.271 122.583 39.0579V186.631C122.584 187.418 122.897 188.173 123.454 188.729C124.01 189.285 124.764 189.599 125.551 189.6H230.538C231.325 189.599 232.079 189.285 232.635 188.729C233.192 188.173 233.505 187.418 233.506 186.631V39.0579C233.505 38.271 233.192 37.5168 232.635 36.9604C232.079 36.404 231.325 36.0908 230.538 36.0893H125.551Z" fill="#EBEBEB"/>
<path d="M212.362 55.5643H149.24V130.93H212.362V55.5643Z" fill="#E6E6E6"/>
<path d="M213.939 55.5643H150.816V130.93H213.939V55.5643Z" fill="#F5F5F5"/>
<path d="M211.111 127.75V58.7394H153.649V127.75H211.111Z" fill="white"/>
<path d="M211.106 127.75V58.7394H209.915V127.75H211.106Z" fill="#E6E6E6"/>
<path d="M212.764 111.401H151.985V115.669H212.764V111.401Z" fill="#F5F5F5"/>
<path d="M217.021 50.3068H146.157C146.041 50.3068 145.931 50.3526 145.849 50.4342C145.768 50.5158 145.722 50.6264 145.722 50.7418C145.722 50.8571 145.768 50.9677 145.849 51.0493C145.931 51.1309 146.041 51.1767 146.157 51.1767H217.021C217.136 51.1767 217.247 51.1309 217.329 51.0493C217.41 50.9677 217.456 50.8571 217.456 50.7418C217.456 50.6264 217.41 50.5158 217.329 50.4342C217.247 50.3526 217.136 50.3068 217.021 50.3068Z" fill="#E6E6E6"/>
<path d="M217.456 52.9165C218.658 52.9165 219.631 51.9428 219.631 50.7417C219.631 49.5407 218.658 48.567 217.456 48.567C216.255 48.567 215.282 49.5407 215.282 50.7417C215.282 51.9428 216.255 52.9165 217.456 52.9165Z" fill="#E6E6E6"/>
<path d="M149.827 53.1775C149.671 53.1775 149.522 53.1156 149.412 53.0055C149.302 52.8954 149.24 52.746 149.24 52.5903V51.3289C149.241 51.1736 149.303 51.0251 149.413 50.9153C149.523 50.8055 149.672 50.7432 149.827 50.7417C149.983 50.7417 150.132 50.8036 150.242 50.9137C150.352 51.0238 150.414 51.1732 150.414 51.3289V52.5903C150.414 52.746 150.352 52.8954 150.242 53.0055C150.132 53.1156 149.983 53.1775 149.827 53.1775Z" fill="#E6E6E6"/>
<path d="M210.453 53.1775C210.298 53.1775 210.148 53.1156 210.038 53.0055C209.928 52.8954 209.866 52.746 209.866 52.5903V51.3289C209.868 51.1736 209.93 51.0251 210.04 50.9153C210.15 50.8055 210.298 50.7432 210.453 50.7417C210.609 50.7417 210.758 50.8036 210.869 50.9137C210.979 51.0238 211.041 51.1732 211.041 51.3289V52.5903C211.041 52.746 210.979 52.8954 210.869 53.0055C210.758 53.1156 210.609 53.1775 210.453 53.1775Z" fill="#E6E6E6"/>
<path opacity="0.5" d="M216.88 50.7417H151.985V82.3953H216.88V50.7417Z" fill="#E0E0E0"/>
<path d="M156.83 52.9165C158.031 52.9165 159.004 51.9428 159.004 50.7417C159.004 49.5407 158.031 48.567 156.83 48.567C155.628 48.567 154.655 49.5407 154.655 50.7417C154.655 51.9428 155.628 52.9165 156.83 52.9165Z" fill="#E6E6E6"/>
<path d="M32.8519 139.026H9.82666L11.8655 112.075H30.8131L32.8519 139.026Z" fill="#EBEBEB"/>
<path d="M27.801 139.026H23.843L23.0002 112.075H26.6538L27.801 139.026Z" fill="#F5F5F5"/>
<path d="M22.4947 139.026H20.1895V213.984H22.4947V139.026Z" fill="#F0F0F0"/>
<path d="M22.212 150.068H20.4722C19.6254 150.068 18.939 150.755 18.939 151.602V157.261C18.939 158.108 19.6254 158.795 20.4722 158.795H22.212C23.0587 158.795 23.7452 158.108 23.7452 157.261V151.602C23.7452 150.755 23.0587 150.068 22.212 150.068Z" fill="#F0F0F0"/>
<path d="M22.212 164.052H20.4722C19.6254 164.052 18.939 164.739 18.939 165.585V171.245C18.939 172.092 19.6254 172.778 20.4722 172.778H22.212C23.0587 172.778 23.7452 172.092 23.7452 171.245V165.585C23.7452 164.739 23.0587 164.052 22.212 164.052Z" fill="#F0F0F0"/>
<path d="M24.9847 213.984H17.6938C17.6938 213.572 17.8577 213.177 18.1493 212.885C18.4409 212.593 18.8364 212.43 19.2488 212.43H23.4298C23.8422 212.43 24.2377 212.593 24.5293 212.885C24.8209 213.177 24.9847 213.572 24.9847 213.984Z" fill="#F0F0F0"/>
<path d="M22.4947 139.026H20.1895V140.434H22.4947V139.026Z" fill="#E0E0E0"/>
<path d="M36.4403 116.664L100.074 116.664L100.074 52.8567L36.4403 52.8567L36.4403 116.664Z" fill="#F0F0F0"/>
<path d="M36.4403 52.8567H35.342V116.664H36.4403V52.8567Z" fill="#E0E0E0"/>
<path d="M42.0622 112.63H94.4575V56.8855L42.0622 56.8855L42.0622 112.63Z" fill="#FAFAFA"/>
<path d="M65.2449 100.277H71.2799C77.6697 100.277 82.8496 95.0974 82.8496 88.7076V80.8078C82.8496 74.418 77.6697 69.2381 71.2799 69.2381H65.2449C58.8552 69.2381 53.6752 74.418 53.6752 80.8078V88.7076C53.6752 95.0974 58.8552 100.277 65.2449 100.277Z" fill="#F5F5F5"/>
<path d="M205.642 140.608H181.42V213.979H205.642V140.608Z" fill="#E6E6E6"/>
<path d="M193.817 213.984H205.642V203.856H181.42L193.817 213.984Z" fill="#FAFAFA"/>
<path d="M109.045 140.608H84.8232V213.979H109.045V140.608Z" fill="#E6E6E6"/>
<path d="M205.636 140.608H98.7253V210.494H205.636V140.608Z" fill="#FAFAFA"/>
<path d="M110.551 213.984H98.731V203.856H122.952L110.551 213.984Z" fill="#FAFAFA"/>
<path d="M196.47 166.651H107.903V184.141H196.47V166.651Z" fill="#F0F0F0"/>
<path d="M196.47 187.882H107.903V205.372H196.47V187.882Z" fill="#F0F0F0"/>
<path d="M175.375 168.521H128.993C128.096 168.521 127.236 168.165 126.601 167.531C125.967 166.896 125.611 166.036 125.611 165.139H178.756C178.757 165.584 178.67 166.024 178.5 166.434C178.331 166.845 178.082 167.218 177.768 167.532C177.453 167.846 177.08 168.096 176.67 168.265C176.259 168.435 175.819 168.522 175.375 168.521Z" fill="#FAFAFA"/>
<path d="M196.47 145.425H107.903V162.916H196.47V145.425Z" fill="#F0F0F0"/>
<path d="M175.375 147.296H128.993C128.095 147.294 127.235 146.937 126.601 146.302C125.967 145.666 125.611 144.806 125.611 143.908H178.756C178.757 144.353 178.67 144.793 178.501 145.204C178.331 145.615 178.082 145.989 177.768 146.303C177.454 146.618 177.081 146.867 176.67 147.038C176.259 147.208 175.819 147.296 175.375 147.296Z" fill="#FAFAFA"/>
<path d="M175.375 189.752H128.993C128.095 189.751 127.235 189.393 126.601 188.758C125.967 188.123 125.611 187.262 125.611 186.365H178.756C178.757 186.81 178.67 187.25 178.501 187.661C178.331 188.072 178.082 188.445 177.768 188.76C177.454 189.074 177.081 189.324 176.67 189.494C176.259 189.665 175.819 189.752 175.375 189.752Z" fill="#FAFAFA"/>
<path d="M120 238.537C178.22 238.537 225.416 235.782 225.416 232.383C225.416 228.984 178.22 226.228 120 226.228C61.7803 226.228 14.584 228.984 14.584 232.383C14.584 235.782 61.7803 238.537 120 238.537Z" fill="#F5F5F5"/>
<path d="M25.1534 124.325H106.294C103.885 124.295 101.576 123.36 99.8257 121.706C98.075 120.052 97.0107 117.8 96.8443 115.397L95.4089 91.214H14.2742L15.7041 115.397C15.8705 117.8 16.9348 120.052 18.6855 121.706C20.4362 123.36 22.7451 124.295 25.1534 124.325Z" fill="#00ADEF"/>
<path opacity="0.6" d="M25.1534 124.325H106.294C103.885 124.295 101.576 123.36 99.8257 121.706C98.075 120.052 97.0107 117.8 96.8443 115.397L95.4089 91.214H14.2742L15.7041 115.397C15.8705 117.8 16.9348 120.052 18.6855 121.706C20.4362 123.36 22.7451 124.295 25.1534 124.325Z" fill="white"/>
<path d="M112.307 75.1262H40.0778C38.9263 75.1126 37.7846 75.3383 36.7248 75.7889C35.6651 76.2394 34.7104 76.9051 33.9213 77.7438C33.1322 78.5825 32.5259 79.5759 32.1406 80.6611C31.7553 81.7463 31.5996 82.8996 31.6832 84.0482L33.5535 115.403C33.6388 116.552 33.4842 117.706 33.0996 118.792C32.7149 119.878 32.1086 120.872 31.3192 121.711C30.5297 122.55 29.5744 123.215 28.5139 123.665C27.4534 124.115 26.3109 124.34 25.1589 124.325H106.294C107.446 124.34 108.588 124.115 109.649 123.665C110.709 123.215 111.664 122.55 112.454 121.711C113.243 120.872 113.85 119.878 114.234 118.792C114.619 117.706 114.774 116.552 114.688 115.403L114.889 118.795L112.834 84.0699C112.746 82.9193 112.898 81.7628 113.281 80.6743C113.664 79.5858 114.27 78.589 115.06 77.7476C115.85 76.9062 116.806 76.2385 117.868 75.7872C118.93 75.3358 120.075 75.1107 121.229 75.1262H112.307Z" fill="#00ADEF"/>
<path d="M121.229 75.1262H40.0776C42.4858 75.1533 44.7954 76.0865 46.5465 77.7399C48.2976 79.3933 49.3617 81.6455 49.527 84.0482L56.5134 201.86H137.648L130.678 84.0699C130.516 81.6643 129.453 79.4081 127.702 77.7507C125.951 76.0933 123.64 75.1563 121.229 75.1262Z" fill="#00ADEF"/>
<path opacity="0.8" d="M121.229 75.1262H40.0776C42.4858 75.1533 44.7954 76.0865 46.5465 77.7399C48.2976 79.3933 49.3617 81.6455 49.527 84.0482L56.5134 201.86H137.648L130.678 84.0699C130.516 81.6643 129.453 79.4081 127.702 77.7507C125.951 76.0933 123.64 75.1563 121.229 75.1262Z" fill="white"/>
<path d="M76.8637 108.661H61.8252L60.9172 93.6117H75.9611L76.8637 108.661ZM63.4563 106.889H74.9662L74.3301 95.3787H62.7984L63.4563 106.889Z" fill="white"/>
<path d="M78.9623 144.061H63.9075L63.0159 129.006H78.0706L78.9623 144.061ZM65.5712 142.288H77.0811L76.4015 130.778H64.8916L65.5712 142.288Z" fill="white"/>
<path d="M81.0556 179.46H66.0008L65.0874 164.405H80.1422L81.0556 179.46ZM67.6699 177.688H79.1798L78.4948 166.178H66.9849L67.6699 177.688Z" fill="white"/>
<path d="M118.826 93.6062H84.2144V95.3786H118.826V93.6062Z" fill="white"/>
<path d="M115.15 100.25H84.606V102.023H115.15V100.25Z" fill="white"/>
<path d="M119.609 106.889H84.9973V108.661H119.609V106.889Z" fill="white"/>
<path d="M120.919 129.006H86.3074V130.778H120.919V129.006Z" fill="white"/>
<path d="M107.017 135.65H86.699V137.422H107.017V135.65Z" fill="white"/>
<path d="M97.5837 142.288H87.0959V144.061H97.5837V142.288Z" fill="white"/>
<path d="M121.707 142.288H104.402V144.061H121.707V142.288Z" fill="white"/>
<path d="M123.012 164.405H88.4009V166.178H123.012V164.405Z" fill="white"/>
<path d="M123.409 171.049H88.7979V172.822H123.409V171.049Z" fill="white"/>
<path d="M108.333 177.688H89.1892V179.46H108.333V177.688Z" fill="white"/>
<path d="M70.3231 105.116C69.9469 105.117 69.585 104.973 69.3119 104.714L65.6311 101.223C65.4904 101.09 65.3774 100.931 65.2984 100.754C65.2194 100.577 65.176 100.386 65.1707 100.193C65.16 99.8016 65.3051 99.4223 65.574 99.1382C65.8429 98.8542 66.2137 98.6886 66.6047 98.6779C66.9957 98.6672 67.375 98.8122 67.659 99.0812L70.2796 101.555L76.1787 95.2862C76.4469 95.0014 76.8172 94.8348 77.2082 94.8231C77.5993 94.8114 77.9789 94.9555 78.2637 95.2237C78.5485 95.4919 78.7151 95.8622 78.7268 96.2533C78.7385 96.6443 78.5944 97.0239 78.3262 97.3087L71.4159 104.654C71.2835 104.796 71.1238 104.91 70.9463 104.99C70.7689 105.069 70.5773 105.112 70.3829 105.116H70.3231Z" fill="#00ADEF"/>
<path d="M72.4217 140.516C72.0453 140.517 71.683 140.373 71.4105 140.113L67.7134 136.623C67.5678 136.491 67.4499 136.332 67.3666 136.154C67.2834 135.977 67.2365 135.784 67.2287 135.588C67.2209 135.392 67.2523 135.196 67.3212 135.013C67.39 134.829 67.4949 134.661 67.6296 134.518C67.7643 134.375 67.9262 134.261 68.1057 134.182C68.2852 134.102 68.4787 134.06 68.6749 134.056C68.8712 134.053 69.0661 134.089 69.2483 134.161C69.4305 134.234 69.5963 134.343 69.7359 134.481L72.3619 136.955L78.2555 130.686C78.5237 130.401 78.8941 130.234 79.2851 130.223C79.6761 130.211 80.0558 130.355 80.3406 130.623C80.6254 130.892 80.7919 131.262 80.8037 131.653C80.8154 132.044 80.6713 132.424 80.4031 132.708L73.4928 140.054C73.3612 140.195 73.2024 140.309 73.0259 140.389C72.8494 140.468 72.6587 140.511 72.4652 140.516H72.4217Z" fill="#00ADEF"/>
<path d="M74.5148 175.921C74.1377 175.92 73.7754 175.774 73.5035 175.513L69.8064 172.022C69.6608 171.891 69.5429 171.732 69.4597 171.554C69.3764 171.376 69.3295 171.184 69.3217 170.988C69.3139 170.792 69.3454 170.596 69.4142 170.412C69.4831 170.228 69.5879 170.06 69.7226 169.918C69.8573 169.775 70.0192 169.66 70.1987 169.581C70.3782 169.502 70.5718 169.459 70.768 169.456C70.9642 169.452 71.1591 169.488 71.3413 169.561C71.5235 169.634 71.6893 169.743 71.8289 169.88L74.455 172.354L80.354 166.085C80.6302 165.848 80.9845 165.722 81.3486 165.73C81.7126 165.739 82.0606 165.882 82.3254 166.132C82.5902 166.382 82.7531 166.721 82.7826 167.084C82.8121 167.447 82.7062 167.808 82.4853 168.097L75.575 175.442C75.4419 175.584 75.2821 175.698 75.1048 175.777C74.9275 175.856 74.7362 175.9 74.542 175.904L74.5148 175.921Z" fill="#00ADEF"/>
<path d="M152.489 92.5915L141.93 95.1871L173.442 223.384L184.001 220.789L152.489 92.5915Z" fill="#00ADEF"/>
<path opacity="0.2" d="M152.483 92.5905L149.268 93.3808L180.78 221.578L183.995 220.788L152.483 92.5905Z" fill="black"/>
<path d="M183.204 222.696L175.02 224.707C174.364 224.868 173.963 225.531 174.124 226.187L175.495 231.762C175.656 232.419 176.318 232.82 176.974 232.658L185.158 230.647C185.814 230.486 186.215 229.823 186.054 229.167L184.683 223.591C184.522 222.935 183.86 222.534 183.204 222.696Z" fill="#00ADEF"/>
<path opacity="0.7" d="M183.204 222.696L175.02 224.707C174.364 224.868 173.963 225.531 174.124 226.187L175.495 231.762C175.656 232.419 176.318 232.82 176.974 232.658L185.158 230.647C185.814 230.486 186.215 229.823 186.054 229.167L184.683 223.591C184.522 222.935 183.86 222.534 183.204 222.696Z" fill="white"/>
<path d="M183.267 218.944L173.23 221.411C172.624 221.56 172.253 222.173 172.402 222.779L173.3 226.433C173.449 227.039 174.061 227.41 174.668 227.261L184.705 224.794C185.311 224.645 185.682 224.032 185.533 223.426L184.635 219.772C184.486 219.166 183.873 218.795 183.267 218.944Z" fill="#E0E0E0"/>
<path d="M152.491 92.5787L141.932 95.1775L143.172 86.3425L143.966 80.6773L147.298 85.3258L152.491 92.5787Z" fill="#E0E0E0"/>
<path d="M147.299 85.3258L143.172 86.3425L143.966 80.6773L147.299 85.3258Z" fill="#00ADEF"/>
<path d="M179.762 84.1949C179.708 87.4571 179.077 93.6062 180.795 95.6124C176.846 96.9111 173.305 99.2203 170.525 102.311C168.17 98.4613 171.242 96.3899 171.242 96.3899C174.63 95.3025 174.423 92.7526 173.711 90.4093L179.762 84.1949Z" fill="#FFB573"/>
<path d="M169.524 98.9887C170.422 95.6559 167.893 95.1829 172.107 93.5518C175.402 92.247 181.627 92.0621 183.089 93.1114C183.9 93.6986 182.785 95.7538 182.785 95.7538L169.524 98.9887Z" fill="#263238"/>
<path d="M187.787 98.271C188.032 98.6625 188.206 98.9615 188.402 99.304C188.597 99.6466 188.76 99.9619 188.945 100.294C189.293 100.957 189.619 101.62 189.935 102.294C190.565 103.637 191.115 105.013 191.62 106.405C192.636 109.224 193.364 112.138 193.795 115.104L193.936 116.224C193.964 116.381 193.985 116.664 194.002 116.909C194.018 117.153 194.002 117.376 194.002 117.594C193.989 118.396 193.929 119.196 193.822 119.991C193.632 121.492 193.344 122.911 193.028 124.341C192.386 127.13 191.575 129.877 190.598 132.567C190.468 132.932 190.21 133.237 189.872 133.425C189.534 133.613 189.138 133.672 188.76 133.59C188.382 133.508 188.046 133.291 187.816 132.98C187.586 132.668 187.477 132.284 187.51 131.898C187.727 129.136 187.983 126.353 188.184 123.634C188.282 122.275 188.358 120.916 188.38 119.633C188.38 118.996 188.38 118.366 188.32 117.838L188.271 117.474L188.2 117.121L187.999 116.175C187.418 113.627 186.637 111.129 185.661 108.704C185.172 107.487 184.645 106.28 184.09 105.089C183.815 104.491 183.527 103.904 183.226 103.327L182.769 102.468L182.339 101.68L182.263 101.539C181.867 100.809 181.771 99.9528 181.996 99.1532C182.221 98.3535 182.748 97.673 183.467 97.2561C184.185 96.8392 185.038 96.7188 185.843 96.9205C186.649 97.1222 187.344 97.6301 187.782 98.3363L187.787 98.271Z" fill="#FFB573"/>
<path d="M186.33 133.665L186.781 132.915L188.053 130.773L190.386 132.094C190.87 134.269 189.391 136.193 189.391 136.193L188.733 136.737C188.509 136.932 188.219 137.034 187.922 137.023C187.625 137.012 187.343 136.889 187.134 136.677L186.629 136.21C186.311 135.875 186.11 135.446 186.056 134.987C186.002 134.529 186.098 134.065 186.33 133.665Z" fill="#FFB573"/>
<path d="M155.34 132.556L154.964 131.197C154.876 130.877 154.667 130.605 154.38 130.438C154.093 130.271 153.753 130.224 153.431 130.305L151.8 130.724L150.794 130.974C150.265 131.112 149.796 131.418 149.456 131.847C149.117 132.276 148.926 132.803 148.913 133.35V134.16C148.911 134.513 149.043 134.853 149.282 135.113C149.521 135.372 149.85 135.531 150.202 135.557L151.207 135.655C152.716 135.415 154.1 134.671 155.133 133.546C155.245 133.41 155.322 133.249 155.358 133.076C155.394 132.904 155.388 132.725 155.34 132.556Z" fill="#FFB573"/>
<path d="M185.068 95.8788C187.923 97.1456 190.538 100.163 192.68 105.747C191.995 108.047 184.922 111.814 184.922 111.814C184.922 111.814 176.098 93.106 185.068 95.8788Z" fill="#00ADEF"/>
<path d="M161.456 103.028C161.483 105.1 158.053 109.901 162 112.684C162.342 116.876 162.805 121.003 163.702 127.88H184.813C182.807 120.269 184.541 115.158 187.76 101.783C187.944 101.065 187.97 100.315 187.837 99.5848C187.704 98.855 187.415 98.1625 186.99 97.5548C186.564 96.9471 186.012 96.4385 185.372 96.0638C184.732 95.6892 184.018 95.4573 183.28 95.3841C182.437 95.3025 181.546 95.2318 180.638 95.1829C177.445 94.9542 174.24 94.9542 171.047 95.1829C170.008 95.2753 168.937 95.4058 167.91 95.5472C166.114 95.8089 164.473 96.7094 163.287 98.0836C162.102 99.4578 161.452 101.213 161.456 103.028Z" fill="#00ADEF"/>
<path d="M168.448 101.011C168.497 102.566 168.448 104.056 168.448 105.578C168.448 107.101 168.35 108.607 168.252 110.129C168.084 113.215 167.721 116.288 167.165 119.328C167.1 119.714 166.997 120.116 166.904 120.508C166.812 120.899 166.73 121.291 166.605 121.704L166.431 122.308L166.339 122.612C166.304 122.749 166.26 122.883 166.208 123.014C165.981 123.6 165.669 124.149 165.284 124.645C164.754 125.334 164.174 125.982 163.55 126.586C162.979 127.157 162.397 127.674 161.81 128.217C159.498 130.209 157.041 132.027 154.459 133.654C154.135 133.858 153.748 133.939 153.37 133.881C152.991 133.824 152.646 133.633 152.396 133.343C152.147 133.052 152.01 132.682 152.01 132.299C152.011 131.916 152.148 131.547 152.398 131.257C154.339 129.044 156.34 126.847 158.205 124.673C158.662 124.129 159.108 123.585 159.532 123.042C159.93 122.559 160.293 122.048 160.619 121.514C160.75 121.313 160.831 121.068 160.76 121.204C160.69 121.34 160.76 121.133 160.76 121.073L160.809 120.834L160.913 120.361C160.989 120.057 161.032 119.714 161.087 119.382C161.141 119.051 161.206 118.719 161.239 118.371C161.609 115.626 161.783 112.733 161.886 109.841C161.989 106.948 162.054 104.002 162.071 101.142C162.066 100.723 162.144 100.307 162.3 99.9177C162.456 99.5287 162.687 99.1743 162.98 98.8747C163.572 98.2695 164.38 97.9243 165.227 97.9149C166.073 97.9056 166.889 98.2328 167.494 98.8247C168.099 99.4166 168.444 100.225 168.454 101.071L168.448 101.011Z" fill="#FFB573"/>
<path d="M166.121 96.031C163.517 97.325 160.934 99.8369 159.863 105.589C160.543 107.867 169.851 112.255 169.851 112.255C169.851 112.255 175.032 92.7037 166.121 96.031Z" fill="#00ADEF"/>
<path d="M166.692 82.1181C166.763 82.5258 166.6 82.9064 166.328 82.9553C166.056 83.0043 165.784 82.7215 165.713 82.3083C165.643 81.8951 165.811 81.52 166.078 81.4711C166.344 81.4221 166.627 81.7048 166.692 82.1181Z" fill="#263238"/>
<path d="M166.213 81.4656L165.175 81.3786C165.175 81.3786 165.8 82.0474 166.213 81.4656Z" fill="#263238"/>
<path d="M166.594 82.5748C166.381 83.5884 166.031 84.5687 165.556 85.4889C165.794 85.6002 166.054 85.6578 166.317 85.6578C166.58 85.6578 166.84 85.6002 167.078 85.4889L166.594 82.5748Z" fill="#ED893E"/>
<path d="M165.615 79.3126C165.553 79.3121 165.493 79.2889 165.447 79.2474C165.424 79.2246 165.405 79.1975 165.393 79.1676C165.38 79.1378 165.374 79.1057 165.374 79.0734C165.374 79.041 165.38 79.009 165.393 78.9791C165.405 78.9492 165.424 78.9222 165.447 78.8994C165.712 78.6069 166.043 78.3815 166.413 78.2416C166.782 78.1017 167.18 78.0514 167.573 78.0947C167.604 78.1006 167.633 78.1126 167.66 78.13C167.686 78.1474 167.709 78.17 167.727 78.1963C167.745 78.2226 167.757 78.2522 167.763 78.2833C167.769 78.3144 167.769 78.3464 167.763 78.3775C167.75 78.4426 167.712 78.5 167.657 78.5376C167.602 78.5751 167.535 78.5898 167.469 78.5786C167.158 78.5504 166.845 78.5951 166.554 78.7093C166.263 78.8235 166.003 79.004 165.795 79.2365C165.747 79.2846 165.683 79.3119 165.615 79.3126Z" fill="#263238"/>
<path d="M180.148 78.0676C180.692 83.1783 181.018 85.3313 178.936 88.3977C175.799 93.0462 169.492 92.7472 167.464 87.9464C165.637 83.5969 165.066 75.9852 169.612 73.0167C170.589 72.3499 171.725 71.9517 172.905 71.8622C174.085 71.7726 175.268 71.9947 176.335 72.5062C177.402 73.0178 178.316 73.8008 178.986 74.7769C179.655 75.753 180.056 76.8877 180.148 78.0676Z" fill="#FFB573"/>
<path d="M170.851 81.8027C167.589 81.2264 166.801 77.4804 168.008 75.8493C162.511 76.094 158.808 69.9449 164.746 66.4381C170.683 62.9313 175.924 68.3627 175.5 70.4124C182.812 69.7491 187.097 75.7678 183.111 80.2423C188.369 81.0959 196.241 87.0221 190.462 93.2474C198.275 94.3946 199.123 118.861 177.854 114.511C155.432 109.922 174.913 90.4093 174.913 90.4093C174.913 90.4093 169.231 88.8109 170.851 81.8027Z" fill="#263238"/>
<path d="M191.68 94.8404L191.217 94.5577C193.191 91.3499 193.517 88.4303 192.185 85.8586C190.473 82.5965 186.319 80.6718 183.095 80.487L183.127 79.9433C186.498 80.1336 190.864 82.1181 192.669 85.6031C194.072 88.3216 193.729 91.5076 191.68 94.8404Z" fill="#263238"/>
<path d="M185.498 80.7914C187.374 80.4815 186.488 77.4206 185.107 76.6105C183.726 75.8004 177.109 77.1161 177.838 79.2256C178.566 81.3351 182.981 81.2101 185.498 80.7914Z" fill="white"/>
<path d="M185.835 80.0194C187.705 79.6606 186.955 77.1813 185.552 76.4039C184.15 75.6264 178.37 76.2027 179.158 78.285C179.947 80.3674 183.334 80.5142 185.835 80.0194Z" fill="#00ADEF"/>
<path d="M166.241 76.4691C164.988 76.4523 163.777 76.018 162.799 75.235C161.239 74.0225 160.38 72.2066 160.624 70.6082C160.771 69.5915 161.407 68.1942 163.625 67.308L163.827 67.8136C162.261 68.4388 161.342 69.4447 161.162 70.6843C160.967 72.0979 161.744 73.7126 163.152 74.8054C163.806 75.3501 164.592 75.7108 165.431 75.8503C166.27 75.9899 167.132 75.9032 167.926 75.5992L168.133 76.1049C167.532 76.3505 166.889 76.4743 166.241 76.4691Z" fill="#263238"/>
<path d="M172.14 82.4008C171.895 83.7382 171.819 84.3091 171.123 84.9343C170.925 85.1556 170.665 85.3119 170.377 85.3829C170.089 85.4539 169.786 85.4362 169.508 85.3322C169.23 85.2282 168.99 85.0427 168.819 84.8C168.649 84.5573 168.555 84.2687 168.551 83.972C168.442 82.7433 168.861 80.7643 170.106 80.3511C171.351 79.9379 172.384 81.0687 172.14 82.4008Z" fill="#FFB573"/>
<path d="M169.138 86.6579L168.698 85.8695C168.679 85.8373 168.669 85.8007 168.669 85.7635C168.669 85.7263 168.679 85.6897 168.698 85.6575L169.138 84.8745C169.157 84.8406 169.185 84.8122 169.218 84.7925C169.252 84.7728 169.29 84.7624 169.329 84.7624C169.367 84.7624 169.406 84.7728 169.439 84.7925C169.472 84.8122 169.5 84.8406 169.519 84.8745L169.959 85.6575C169.978 85.6897 169.988 85.7263 169.988 85.7635C169.988 85.8007 169.978 85.8373 169.959 85.8695L169.519 86.6579C169.5 86.6919 169.472 86.7202 169.439 86.7399C169.406 86.7596 169.367 86.7701 169.329 86.7701C169.29 86.7701 169.252 86.7596 169.218 86.7399C169.185 86.7202 169.157 86.6919 169.138 86.6579Z" fill="white"/>
<path d="M163.712 127.864C163.712 127.864 162.967 155.125 161.973 173.056C160.918 189.513 159.564 228.001 159.564 228.001L163.723 228.218C163.723 228.218 172.922 195.831 172.536 176.263C183.334 148.894 179.452 128.685 179.452 128.685L163.712 127.864Z" fill="#FFB573"/>
<path d="M159.874 226.272C159.781 226.205 159.67 226.169 159.556 226.169C159.442 226.169 159.331 226.205 159.238 226.272C157.242 227.753 154.824 228.557 152.338 228.566C149.577 228.686 150.256 230.197 154.209 230.703C158.857 231.279 159.852 232.236 161.353 232.611C162.853 232.986 164.044 231.845 164.017 228.691C164.014 228.584 163.98 228.479 163.918 228.391C163.856 228.303 163.769 228.235 163.669 228.196C162.333 227.706 161.059 227.06 159.874 226.272Z" fill="#263238"/>
<path d="M169.231 127.864C169.231 127.864 176.843 160.127 181.252 175.165C185.89 190.932 189.565 226.913 189.538 228.104H193.137C193.137 228.104 197.786 198.941 192.05 175.149C191.506 136.547 184.851 127.891 184.851 127.891L169.231 127.864Z" fill="#FFB573"/>
<path d="M189.445 226.816C189.351 226.777 189.248 226.77 189.15 226.795C189.052 226.821 188.964 226.878 188.901 226.957C187.972 228.164 187.298 229.501 184.552 230.676C182.279 231.643 183.535 232.97 187.091 232.486C191.272 231.91 191.332 232.59 192.74 232.59C194.148 232.59 194.811 231.187 193.784 228.137C193.751 228.036 193.691 227.946 193.611 227.877C193.53 227.808 193.432 227.762 193.327 227.745C192 227.593 190.697 227.281 189.445 226.816Z" fill="#263238"/>
<path d="M163.713 127.864C163.713 127.864 160.124 151.754 160.63 184.408C171.982 184.343 183.262 182.603 194.105 179.243C194.105 179.243 194.268 136.933 184.824 127.88C179.371 126.412 163.838 127.386 163.713 127.864Z" fill="#263238"/>
<path opacity="0.2" d="M164.131 179.77C164.096 179.77 164.062 179.757 164.037 179.732C164.011 179.708 163.996 179.675 163.995 179.64C162.978 158.789 165.447 129.354 165.468 129.076C165.469 129.058 165.473 129.041 165.481 129.024C165.489 129.008 165.5 128.993 165.514 128.982C165.528 128.97 165.544 128.961 165.562 128.956C165.579 128.951 165.597 128.949 165.615 128.951C165.633 128.953 165.651 128.958 165.667 128.966C165.683 128.974 165.697 128.985 165.708 128.999C165.72 129.012 165.729 129.028 165.734 129.045C165.74 129.062 165.742 129.08 165.74 129.098C165.713 129.397 163.25 158.811 164.267 179.661C164.268 179.679 164.266 179.697 164.26 179.715C164.254 179.732 164.245 179.747 164.233 179.761C164.22 179.774 164.206 179.785 164.189 179.792C164.172 179.799 164.154 179.803 164.136 179.803L164.131 179.77Z" fill="white"/>
<path opacity="0.2" d="M178.337 158.92L181.431 142.533L182.676 146.453L178.337 158.92Z" fill="black"/>
</g>
<defs>
<clipPath id="clip0">
<rect width="240" height="284" fill="white"/>
</clipPath>
</defs>
</svg>
