<svg width="16" height="17" viewBox="0 0 16 17" fill="none" xmlns="http://www.w3.org/2000/svg">
<path d="M6.93333 4.01111H9.06667L8.62222 9.25556H7.37778L6.93333 4.01111Z" fill="#E72176"/>
<path d="M6.93333 11.6556C6.93333 11.0778 7.42222 10.5889 8 10.5889C8.57778 10.5889 9.06667 11.0778 9.06667 11.6556C9.06667 12.2333 8.57778 12.7222 8 12.7222C7.42222 12.6778 6.93333 12.2333 6.93333 11.6556Z" fill="#E72176"/>
<path d="M8 1.56667C11.8222 1.56667 14.9333 4.67778 14.9333 8.5C14.9333 12.3222 11.8222 15.4333 8 15.4333C4.17778 15.4333 1.06667 12.3222 1.06667 8.5C1.06667 4.67778 4.17778 1.56667 8 1.56667ZM8 0.5C3.6 0.5 0 4.1 0 8.5C0 12.9 3.6 16.5 8 16.5C12.4 16.5 16 12.9 16 8.5C16 4.1 12.4 0.5 8 0.5Z" fill="#E72176"/>
</svg>
